<svg width="16" height="16" viewBox="0 0 16 16" fill="none" xmlns="http://www.w3.org/2000/svg">
<g clip-path="url(#clip0_0_1588)">
<path d="M8.00041 12.6653C7.87212 12.6653 7.72783 12.6013 7.63155 12.505L0.160692 5.03419C0.0644064 4.9379 0.000406265 4.79362 0.000406265 4.66533C0.000406265 4.53704 0.0644064 4.39276 0.160692 4.29647L0.962406 3.49476C1.05869 3.39847 1.18698 3.33447 1.33126 3.33447C1.45955 3.33447 1.60384 3.39847 1.70012 3.49476L8.00069 9.79533L14.3013 3.49476C14.3975 3.39847 14.5418 3.33447 14.6701 3.33447C14.7984 3.33447 14.9427 3.39847 15.039 3.49476L15.8407 4.29647C15.937 4.39276 16.001 4.53704 16.001 4.66533C16.001 4.79362 15.937 4.9379 15.8407 5.03419L8.36983 12.505C8.27355 12.6013 8.12869 12.6653 8.00041 12.6653Z" fill="#626262"/>
</g>
<defs>
<clipPath id="clip0_0_1588">
<rect width="16" height="16" fill="white" transform="matrix(0 1 -1 0 16 0)"/>
</clipPath>
</defs>
</svg>
