<svg width="18" height="18" viewBox="0 0 18 18" fill="none" xmlns="http://www.w3.org/2000/svg">
<path d="M14.6029 17.3334H3.39669C2.28994 16.2403 1.66941 15.6273 0.5625 14.5342V3.46601C1.66941 2.37274 2.28994 1.75986 3.39669 0.666748H14.6029C15.7096 1.75986 16.3303 2.37274 17.4371 3.46601V14.5342C16.3302 15.6274 15.7096 16.2403 14.6029 17.3334Z" stroke="black" stroke-width="0.5" stroke-miterlimit="10" stroke-linecap="round" stroke-linejoin="round"/>
<path d="M13.0694 15.0543H4.92851C4.12438 14.2601 3.67359 13.8148 2.86963 13.0208V4.98004C3.67375 4.18583 4.12454 3.74059 4.92851 2.94653H13.0694C13.8735 3.74075 14.3243 4.18598 15.1283 4.98004V13.0206C14.3243 13.8148 13.8735 14.2601 13.0694 15.0543Z" stroke="black" stroke-width="0.5" stroke-miterlimit="10" stroke-linecap="round" stroke-linejoin="round"/>
<path d="M3.39697 0.666748L4.92964 2.94628" stroke="black" stroke-width="0.5" stroke-miterlimit="10" stroke-linecap="round" stroke-linejoin="round"/>
<path d="M0.5625 3.46631L2.87047 4.98009" stroke="black" stroke-width="0.5" stroke-miterlimit="10" stroke-linecap="round" stroke-linejoin="round"/>
<path d="M0.5625 14.5345L2.87047 13.0208" stroke="black" stroke-width="0.5" stroke-miterlimit="10" stroke-linecap="round" stroke-linejoin="round"/>
<path d="M3.39697 17.3328L4.92964 15.0535" stroke="black" stroke-width="0.5" stroke-miterlimit="10" stroke-linecap="round" stroke-linejoin="round"/>
<path d="M14.6064 17.3328L13.0737 15.0535" stroke="black" stroke-width="0.5" stroke-miterlimit="10" stroke-linecap="round" stroke-linejoin="round"/>
<path d="M17.4383 14.5345L15.1304 13.0208" stroke="black" stroke-width="0.5" stroke-miterlimit="10" stroke-linecap="round" stroke-linejoin="round"/>
<path d="M17.4383 3.46631L15.1304 4.98009" stroke="black" stroke-width="0.5" stroke-miterlimit="10" stroke-linecap="round" stroke-linejoin="round"/>
<path d="M14.6064 0.666748L13.0737 2.94628" stroke="black" stroke-width="0.5" stroke-miterlimit="10" stroke-linecap="round" stroke-linejoin="round"/>
</svg>
