<svg width="21" height="22" viewBox="0 0 21 22" fill="none" xmlns="http://www.w3.org/2000/svg">
<path d="M17.1395 20.8735H3.85806C2.54636 19.5618 1.81091 18.8262 0.499023 17.5144V4.23265C1.81091 2.92073 2.54636 2.18527 3.85806 0.873535H17.1395C18.4512 2.18527 19.1868 2.92073 20.4985 4.23265V17.5144C19.1866 18.8263 18.4512 19.5618 17.1395 20.8735Z" stroke="black" stroke-width="0.5" stroke-miterlimit="10" stroke-linecap="round" stroke-linejoin="round"/>
<path d="M15.322 18.1387H5.67355C4.72052 17.1856 4.18624 16.6513 3.2334 15.6985V6.04959C4.18643 5.09653 4.7207 4.56224 5.67355 3.60938H15.322C16.275 4.56243 16.8093 5.09672 17.7622 6.04959V15.6983C16.8093 16.6513 16.275 17.1856 15.322 18.1387Z" stroke="black" stroke-width="0.5" stroke-miterlimit="10" stroke-linecap="round" stroke-linejoin="round"/>
<path d="M3.8584 0.873535L5.67489 3.60898" stroke="black" stroke-width="0.5" stroke-miterlimit="10" stroke-linecap="round" stroke-linejoin="round"/>
<path d="M0.499023 4.23291L3.2344 6.04945" stroke="black" stroke-width="0.5" stroke-miterlimit="10" stroke-linecap="round" stroke-linejoin="round"/>
<path d="M0.499023 17.515L3.2344 15.6985" stroke="black" stroke-width="0.5" stroke-miterlimit="10" stroke-linecap="round" stroke-linejoin="round"/>
<path d="M3.8584 20.8729L5.67489 18.1377" stroke="black" stroke-width="0.5" stroke-miterlimit="10" stroke-linecap="round" stroke-linejoin="round"/>
<path d="M17.1436 20.8729L15.3271 18.1377" stroke="black" stroke-width="0.5" stroke-miterlimit="10" stroke-linecap="round" stroke-linejoin="round"/>
<path d="M20.5 17.515L17.7646 15.6985" stroke="black" stroke-width="0.5" stroke-miterlimit="10" stroke-linecap="round" stroke-linejoin="round"/>
<path d="M20.5 4.23291L17.7646 6.04945" stroke="black" stroke-width="0.5" stroke-miterlimit="10" stroke-linecap="round" stroke-linejoin="round"/>
<path d="M17.1436 0.873535L15.3271 3.60898" stroke="black" stroke-width="0.5" stroke-miterlimit="10" stroke-linecap="round" stroke-linejoin="round"/>
</svg>
