<svg width="26" height="26" viewBox="0 0 26 26" fill="none" xmlns="http://www.w3.org/2000/svg">
<path d="M21 18C20.5 18 20 17.8 19.6 17.4L16.6 14.4C16.2 14 16 13.5 16 13C16 12.5 16.2 12 16.6 11.6L19.6 8.6C20 8.2 20.5 8 21 8C21.5 8 22 8.2 22.4 8.6L25.4 11.6C25.8 12 26 12.5 26 13C26 13.5 25.8 14 25.4 14.4L22.4 17.4C22 17.8 21.5 18 21 18ZM21 10L18 13L21 16L24 13L21 10ZM13 10C12.5 10 12 9.8 11.6 9.4L8.6 6.4C8.2 6 8 5.5 8 5C8 4.5 8.2 4 8.6 3.6L11.6 0.6C12 0.2 12.5 0 13 0C13.5 0 14 0.2 14.4 0.6L17.4 3.6C17.8 4 18 4.5 18 5C18 5.5 17.8 6 17.4 6.4L14.4 9.4C14 9.8 13.5 10 13 10ZM13 2L10 5L13 8L16 5L13 2ZM13 26C12.5 26 12 25.8 11.6 25.4L8.6 22.4C8.2 22 8 21.5 8 21C8 20.5 8.2 20 8.6 19.6L11.6 16.6C12 16.2 12.5 16 13 16C13.5 16 14 16.2 14.4 16.6L17.4 19.6C17.8 20 18 20.5 18 21C18 21.5 17.8 22 17.4 22.4L14.4 25.4C14 25.8 13.5 26 13 26ZM13 18L10 21L13 24L16 21L13 18ZM5 18C4.5 18 4 17.8 3.6 17.4L0.6 14.4C0.2 14 0 13.5 0 13C0 12.5 0.2 12 0.6 11.6L3.6 8.6C4 8.2 4.5 8 5 8C5.5 8 6 8.2 6.4 8.6L9.4 11.6C9.8 12 10 12.5 10 13C10 13.5 9.8 14 9.4 14.4L6.4 17.4C6 17.8 5.5 18 5 18ZM5 10L2 13L5 16L8 13L5 10Z" fill="white"/>
</svg>
