<svg width="36" height="18" viewBox="0 0 36 18" fill="none" xmlns="http://www.w3.org/2000/svg">
<rect x="0.25" y="5.75" width="35.5" height="5.5" rx="2.75" stroke="#555555" stroke-width="0.5"/>
<circle cx="18" cy="9.5" r="5.75" fill="white" stroke="#555555" stroke-width="0.5"/>
<circle cx="18" cy="9.5" r="2.75" fill="white" stroke="#555555" stroke-width="0.5"/>
<circle cx="19.5" cy="16" r="1.25" fill="white" stroke="#555555" stroke-width="0.5"/>
<circle cx="16.5" cy="16" r="1.25" fill="white" stroke="#555555" stroke-width="0.5"/>
<circle cx="13.5" cy="15" r="1.25" fill="white" stroke="#555555" stroke-width="0.5"/>
<circle cx="11.5" cy="13" r="1.25" fill="white" stroke="#555555" stroke-width="0.5"/>
<circle cx="10.5" cy="10" r="1.25" fill="white" stroke="#555555" stroke-width="0.5"/>
<circle cx="10.5" cy="7" r="1.25" fill="white" stroke="#555555" stroke-width="0.5"/>
<circle cx="12.5" cy="5" r="1.25" fill="white" stroke="#555555" stroke-width="0.5"/>
<circle cx="14.5" cy="3" r="1.25" fill="white" stroke="#555555" stroke-width="0.5"/>
<circle cx="18.5" cy="2" r="1.25" fill="white" stroke="#555555" stroke-width="0.5"/>
<circle cx="16.5" cy="2" r="1.25" fill="white" stroke="#555555" stroke-width="0.5"/>
<circle cx="21.5" cy="3" r="1.25" fill="white" stroke="#555555" stroke-width="0.5"/>
<circle cx="23.5" cy="5" r="1.25" fill="white" stroke="#555555" stroke-width="0.5"/>
<circle cx="24.5" cy="7" r="1.25" fill="white" stroke="#555555" stroke-width="0.5"/>
<circle cx="25.5" cy="10" r="1.25" fill="white" stroke="#555555" stroke-width="0.5"/>
<circle cx="24.5" cy="13" r="1.25" fill="white" stroke="#555555" stroke-width="0.5"/>
<circle cx="22.5" cy="15" r="1.25" fill="white" stroke="#555555" stroke-width="0.5"/>
</svg>
