<svg width="17" height="26" viewBox="0 0 17 26" fill="none" xmlns="http://www.w3.org/2000/svg">
<circle cx="8.5" cy="16.625" r="7.75" stroke="#8A8A8A" stroke-width="1.5"/>
<path d="M4.5 5.5L8.60417 8.47917L12.5 6" stroke="#8A8A8A" stroke-width="1.5" stroke-linecap="round"/>
<path d="M7.64605 1.33939L6.29297 1.16967L7.64605 1H10.3523L11.7054 1.16967L10.3523 1.33939H7.64605Z" fill="#8A8A8A" stroke="#8A8A8A" stroke-miterlimit="10" stroke-linecap="round" stroke-linejoin="round"/>
<path d="M13 2.21973L11 2.4706H7.00001L5 2.21973" fill="#8A8A8A"/>
<path d="M13 2.21973L11 2.4706H7.00001L5 2.21973" stroke="#8A8A8A" stroke-miterlimit="10" stroke-linecap="round" stroke-linejoin="round"/>
<path d="M11.7062 1.16968L13 2.21972L8.99997 6.52536L5 2.21972L6.2938 1.16968" fill="#8A8A8A"/>
<path d="M11.7062 1.16968L13 2.21972L8.99997 6.52536L5 2.21972L6.2938 1.16968" stroke="#8A8A8A" stroke-miterlimit="10" stroke-linecap="round" stroke-linejoin="round"/>
<path d="M10.3531 1.33936L11 2.47054L8.99996 6.52531L7 2.47054L7.64687 1.33936" fill="#8A8A8A"/>
<path d="M10.3531 1.33936L11 2.47054L8.99996 6.52531L7 2.47054L7.64687 1.33936" stroke="#8A8A8A" stroke-miterlimit="10" stroke-linecap="round" stroke-linejoin="round"/>
</svg>
