<svg width="32" height="16" viewBox="0 0 32 16" fill="none" xmlns="http://www.w3.org/2000/svg">
<path d="M24.8 0.826691C22.88 0.826691 21.0667 1.57336 19.7733 2.86669L16 6.21336L13.9733 8.00002H13.9867L10.4 11.1867C9.54667 12.04 8.41333 12.5067 7.2 12.5067C4.70667 12.5067 2.68 10.4934 2.68 8.00002C2.68 5.50669 4.70667 3.49336 7.2 3.49336C8.41333 3.49336 9.54667 3.96002 10.4533 4.86669L11.96 6.20002L13.9733 4.41336L12.2933 2.93336C11.6256 2.26313 10.8317 1.73187 9.9575 1.37028C9.08328 1.00869 8.14605 0.823931 7.2 0.826691C3.22667 0.826691 0 4.05336 0 8.00002C0 11.9467 3.22667 15.1734 7.2 15.1734C9.12 15.1734 10.9333 14.4267 12.2267 13.1334L16 9.80002L16.0133 9.81336L18.0267 8.00002H18.0133L21.6 4.81336C22.4533 3.96002 23.5867 3.49336 24.8 3.49336C27.2933 3.49336 29.32 5.50669 29.32 8.00002C29.32 10.4934 27.2933 12.5067 24.8 12.5067C23.6 12.5067 22.4533 12.04 21.5467 11.1334L20.0267 9.78669L18.0133 11.5734L19.7067 13.0667C20.3762 13.7336 21.1707 14.2617 22.0447 14.621C22.9187 14.9802 23.8551 15.1634 24.8 15.16C28.7733 15.16 32 11.9467 32 7.98669C32 4.02669 28.7733 0.826691 24.8 0.826691Z" fill="white"/>
</svg>
