<svg width="21" height="22" viewBox="0 0 21 22" fill="none" xmlns="http://www.w3.org/2000/svg">
<path d="M7.15115 20.9207L1.7816 16.3354L0.500488 9.38954L3.90747 3.33308L10.408 1L16.9609 3.48195L20.4997 9.61748L19.3685 16.5359L14.0967 21L7.15115 20.9207Z" stroke="black" stroke-width="0.5" stroke-miterlimit="10" stroke-linecap="round" stroke-linejoin="round"/>
<path d="M8.03647 18.3001L4.08559 14.9264L3.14307 9.81559L5.64972 5.35915L10.433 3.64258L15.2545 5.46874L17.8583 9.98337L17.026 15.0738L13.147 18.3585L8.03647 18.3001Z" stroke="black" stroke-width="0.5" stroke-miterlimit="10" stroke-linecap="round" stroke-linejoin="round"/>
<path d="M10.4102 1L10.4355 3.64206" stroke="black" stroke-width="0.5" stroke-miterlimit="10" stroke-linecap="round" stroke-linejoin="round"/>
<path d="M16.9594 3.48242L15.2524 5.46869" stroke="black" stroke-width="0.5" stroke-miterlimit="10" stroke-linecap="round" stroke-linejoin="round"/>
<path d="M20.4999 9.61719L17.8579 9.98256" stroke="black" stroke-width="0.5" stroke-miterlimit="10" stroke-linecap="round" stroke-linejoin="round"/>
<path d="M19.3674 16.5368L17.0244 15.0742" stroke="black" stroke-width="0.5" stroke-miterlimit="10" stroke-linecap="round" stroke-linejoin="round"/>
<path d="M14.0933 20.9995L13.1431 18.3574" stroke="black" stroke-width="0.5" stroke-miterlimit="10" stroke-linecap="round" stroke-linejoin="round"/>
<path d="M7.15186 20.92L8.03658 18.2988" stroke="black" stroke-width="0.5" stroke-miterlimit="10" stroke-linecap="round" stroke-linejoin="round"/>
<path d="M1.78418 16.3353L4.08757 14.9258" stroke="black" stroke-width="0.5" stroke-miterlimit="10" stroke-linecap="round" stroke-linejoin="round"/>
<path d="M0.500488 9.38867L3.14247 9.8142" stroke="black" stroke-width="0.5" stroke-miterlimit="10" stroke-linecap="round" stroke-linejoin="round"/>
<path d="M3.90869 3.33398L5.65034 5.35953" stroke="black" stroke-width="0.5" stroke-miterlimit="10" stroke-linecap="round" stroke-linejoin="round"/>
</svg>
