<svg width="21" height="20" viewBox="0 0 21 20" fill="none" xmlns="http://www.w3.org/2000/svg">
<mask id="mask0_115_446" style="mask-type:luminance" maskUnits="userSpaceOnUse" x="0" y="0" width="21" height="20">
<path d="M20.4995 0H0.499512V20H20.4995V0Z" fill="white"/>
</mask>
<g mask="url(#mask0_115_446)">
<path d="M0.499512 2.8451C0.499512 2.2016 0.724702 1.6707 1.1752 1.2524C1.6256 0.8341 2.2112 0.625 2.9319 0.625C3.6398 0.625 4.2125 0.8309 4.6501 1.2428C5.1005 1.6675 5.3258 2.2209 5.3258 2.903C5.3258 3.5208 5.107 4.0355 4.6694 4.4474C4.219 4.8721 3.6269 5.0845 2.8933 5.0845H2.874C2.1662 5.0845 1.5935 4.8721 1.1559 4.4474C0.718302 4.0227 0.499512 3.4886 0.499512 2.8451ZM0.750502 19.737V6.8412H5.0362V19.737H0.750502ZM7.4107 19.737H11.6964V12.5362C11.6964 12.0857 11.7479 11.7382 11.8509 11.4937C12.031 11.0561 12.3045 10.6861 12.6713 10.3837C13.0381 10.0812 13.4982 9.93 14.0516 9.93C15.4931 9.93 16.2138 10.9017 16.2138 12.8451V19.737H20.4995V12.3431C20.4995 10.4384 20.0491 8.9937 19.1482 8.0092C18.2473 7.0246 17.0568 6.5323 15.5767 6.5323C13.9165 6.5323 12.6231 7.2466 11.6964 8.6752V8.7138H11.6771L11.6964 8.6752V6.8412H7.4107C7.4364 7.253 7.4493 8.5336 7.4493 10.6829C7.4493 12.8322 7.4364 15.8502 7.4107 19.737Z" fill="#333333"/>
</g>
</svg>
