<svg width="21" height="32" viewBox="0 0 21 32" fill="none" xmlns="http://www.w3.org/2000/svg">
<path d="M10.5 30.8735C16.0228 30.8735 20.5 24.1578 20.5 15.8735C20.5 7.58927 16.0228 0.873535 10.5 0.873535C4.97715 0.873535 0.5 7.58927 0.5 15.8735C0.5 24.1578 4.97715 30.8735 10.5 30.8735Z" stroke="black" stroke-width="0.4" stroke-miterlimit="10" stroke-linecap="round" stroke-linejoin="round"/>
<path d="M20.4998 15.8729L10.5 6.03564L0.500173 15.8729L10.5 25.7101L20.4998 15.8729Z" stroke="black" stroke-width="0.4" stroke-miterlimit="10" stroke-linecap="round" stroke-linejoin="round"/>
<path d="M17.8489 5.70605H3.14893V26.0411H17.8489V5.70605Z" stroke="black" stroke-width="0.4" stroke-miterlimit="10" stroke-linecap="round" stroke-linejoin="round"/>
<path d="M5.79004 2.64136L8.44651 5.70584" stroke="black" stroke-width="0.4" stroke-miterlimit="10" stroke-linecap="round" stroke-linejoin="round"/>
<path d="M12.5537 5.70584L15.2102 2.64136" stroke="black" stroke-width="0.4" stroke-miterlimit="10" stroke-linecap="round" stroke-linejoin="round"/>
<path d="M3.14893 5.70603L6.64563 9.56758L10.4988 0.873535L14.0886 9.56758L17.8489 5.70603" stroke="black" stroke-width="0.4" stroke-miterlimit="10" stroke-linecap="round" stroke-linejoin="round"/>
<path d="M3.14893 26.0403L6.64563 22.179L10.4988 30.8728L14.0886 22.179L17.8489 26.0403" stroke="black" stroke-width="0.4" stroke-miterlimit="10" stroke-linecap="round" stroke-linejoin="round"/>
<path d="M17.2839 17.4627C18.1815 13.7774 15.8722 10.0742 12.1261 9.19123C8.37991 8.30829 4.61544 10.58 3.71791 14.2653C2.82037 17.9505 5.12964 21.6538 8.8758 22.5367C12.622 23.4196 16.3864 21.1479 17.2839 17.4627Z" stroke="black" stroke-width="0.4" stroke-miterlimit="10" stroke-linecap="round" stroke-linejoin="round"/>
</svg>
