<svg width="21" height="21" viewBox="0 0 21 21" fill="none" xmlns="http://www.w3.org/2000/svg">
<path fill-rule="evenodd" clip-rule="evenodd" d="M14.5286 20.6625C12.0837 20.6966 9.63812 20.6264 7.20035 20.8335C6.58848 20.8854 5.96786 20.8607 5.35097 20.8733C5.0443 20.8799 4.89299 20.7543 4.71722 20.5147C4.25731 19.8879 3.71525 19.3082 3.20041 18.7134C2.38879 17.7763 1.56324 16.8488 0.76296 15.9043C0.384043 15.4575 0.430861 15.3123 0.799248 14.8582C1.15646 14.4173 1.49957 13.9626 1.79101 13.4863C2.5785 12.1987 3.31965 10.8891 4.11021 9.6027C4.58633 8.8286 5.12335 8.08396 5.62831 7.32345C5.76763 7.11355 5.89431 6.89708 6.02132 6.68089C6.67693 5.5665 7.32218 4.44696 7.98864 3.33715C8.4066 2.6414 8.85567 1.96024 9.28982 1.27208C9.40565 1.08849 9.52975 0.931498 9.79835 0.887745C10.0399 0.848141 10.1969 0.885317 10.3352 1.07591C11.3216 2.43394 12.2965 3.79926 13.3181 5.13627C13.9585 5.97457 14.692 6.7571 15.3496 7.5861C15.886 8.26226 16.384 8.96329 16.8773 9.66518C17.684 10.8136 18.4655 11.9763 19.2752 13.1239C19.5441 13.5048 19.8529 13.8658 20.1684 14.2188C20.6229 14.7281 20.6026 14.9552 20.1542 15.4376C19.5501 16.0879 18.9957 16.7737 18.413 17.4396C17.7926 18.1491 17.1609 18.8511 16.5413 19.5612C16.3857 19.7395 16.2565 19.9355 16.118 20.1249C15.9213 20.394 15.6689 20.5513 15.2803 20.5492C15.03 20.5479 14.7792 20.6222 14.5286 20.6625ZM9.86428 7.4221C9.50837 8.0322 9.19311 8.58296 8.86701 9.12858C8.32236 10.0404 7.7126 10.9266 7.2381 11.8659C6.78806 12.7563 6.35715 13.6488 5.79063 14.4892C5.47311 14.9603 5.53516 15.1747 5.95101 15.5996C6.32604 15.9832 6.74173 16.3451 7.04824 16.7679C7.32607 17.1509 7.65784 17.2981 8.14968 17.2926C9.39902 17.2785 10.6487 17.2858 11.8982 17.2822C12.4062 17.2808 12.7744 17.0287 13.0929 16.7211C13.4923 16.3348 13.8689 15.9306 14.2522 15.5321C14.9357 14.8212 14.9197 14.8282 14.3854 13.9901C13.8961 13.2227 13.4902 12.4121 12.9666 11.6649C11.9852 10.2634 10.9451 8.89366 9.86428 7.4221ZM10.1735 1.99399C10.1735 3.33543 10.1554 4.57236 10.1807 5.80842C10.1943 6.48672 10.3307 7.141 10.8081 7.72036C11.5074 8.56866 12.1653 9.44385 12.838 10.3092C12.946 10.4483 13.0468 10.5927 13.1375 10.7413C13.8527 11.9123 14.5713 13.0817 15.272 14.2597C15.4293 14.5239 15.6328 14.6492 15.9683 14.6492C17.0088 14.6489 18.0495 14.6621 19.0902 14.6644C19.2483 14.6646 19.4066 14.6355 19.6256 14.6139C19.5216 14.465 19.4582 14.3725 19.3931 14.2816C18.986 13.7097 18.5698 13.1425 18.1728 12.565C16.9401 10.7723 15.7356 8.96787 14.2815 7.29814C13.2997 6.17102 12.4535 4.95168 11.5462 3.77367C11.1076 3.2046 10.6683 2.63597 10.1735 1.99399ZM1.42473 15.1246C2.58287 15.0405 3.67605 14.9648 4.76793 14.8757C4.8533 14.8688 4.95957 14.786 5.00444 14.7135C5.29896 14.238 5.56091 13.7464 5.86887 13.278C6.33397 12.5698 6.59334 11.7816 7.07415 11.0723C7.7458 10.0815 8.27895 9.01777 8.87819 7.98845C9.06222 7.67146 9.2827 7.37106 9.45798 7.05064C9.54708 6.88836 9.61788 6.69834 9.61804 6.52118C9.61949 5.65829 9.60378 4.7954 9.57462 3.9328C9.55583 3.37203 9.50367 2.81212 9.46641 2.25192C9.41538 2.24463 9.36467 2.2372 9.3138 2.23019C6.70479 6.49459 4.09579 10.7588 1.42473 15.1246ZM14.8129 20.0321C14.4145 19.6854 14.1142 19.4511 13.8506 19.1884C13.5292 18.8673 13.2439 18.5181 12.9339 18.1878C12.6513 17.887 12.3121 17.7076 11.8412 17.8146C11.6997 17.8465 11.5457 17.84 11.3974 17.8421C10.4008 17.857 9.40404 17.877 8.40758 17.8798C8.04065 17.8807 7.74548 17.9799 7.52467 18.2394C7.20635 18.6141 6.88834 18.9888 6.57211 19.3654C6.33916 19.6428 6.10977 19.9228 5.82416 20.2672C6.04788 20.2864 6.16809 20.3094 6.28716 20.3047C8.89196 20.2106 11.495 20.0646 14.1043 20.0873C14.2888 20.0886 14.474 20.0596 14.8129 20.0321ZM13.1577 17.4901C13.9383 18.3001 14.5692 19.2157 15.5372 19.8886C16.9038 18.3833 18.2079 16.8738 19.4294 15.2574C18.1762 15.2574 16.9949 15.2642 15.8139 15.2531C15.4832 15.2501 15.2639 15.3767 15.0594 15.5856C14.4372 16.2204 13.8025 16.8461 13.1577 17.4901ZM1.5506 15.707C1.84075 16.3294 4.72208 19.6457 5.21115 19.9312C6.03201 19.3204 6.52773 18.4885 7.14964 17.7353C6.50262 17.0732 5.87358 16.442 5.26316 15.7972C5.03021 15.5511 4.80065 15.4107 4.40084 15.4566C3.45881 15.5651 2.50964 15.6256 1.5506 15.707Z" fill="black"/>
</svg>