<svg width="21" height="22" viewBox="0 0 21 22" fill="none" xmlns="http://www.w3.org/2000/svg">
<path d="M7.15066 20.7943L1.78111 16.209L0.5 9.26308L3.90698 3.20662L10.4076 0.873535L16.9605 3.35548L20.4992 9.49101L19.368 16.4094L14.0962 20.8735L7.15066 20.7943Z" stroke="black" stroke-width="0.5" stroke-miterlimit="10" stroke-linecap="round" stroke-linejoin="round"/>
<path d="M8.03598 18.1736L4.0851 14.7999L3.14258 9.68912L5.64923 5.23268L10.4325 3.51611L15.254 5.34228L17.8578 9.85691L17.0255 14.9474L13.1465 18.232L8.03598 18.1736Z" stroke="black" stroke-width="0.5" stroke-miterlimit="10" stroke-linecap="round" stroke-linejoin="round"/>
<path d="M10.4097 0.873535L10.435 3.51559" stroke="black" stroke-width="0.5" stroke-miterlimit="10" stroke-linecap="round" stroke-linejoin="round"/>
<path d="M16.959 3.35596L15.252 5.34223" stroke="black" stroke-width="0.5" stroke-miterlimit="10" stroke-linecap="round" stroke-linejoin="round"/>
<path d="M20.4994 9.49072L17.8574 9.8561" stroke="black" stroke-width="0.5" stroke-miterlimit="10" stroke-linecap="round" stroke-linejoin="round"/>
<path d="M19.3669 16.4103L17.0239 14.9478" stroke="black" stroke-width="0.5" stroke-miterlimit="10" stroke-linecap="round" stroke-linejoin="round"/>
<path d="M14.0928 20.873L13.1426 18.231" stroke="black" stroke-width="0.5" stroke-miterlimit="10" stroke-linecap="round" stroke-linejoin="round"/>
<path d="M7.15137 20.7935L8.03609 18.1724" stroke="black" stroke-width="0.5" stroke-miterlimit="10" stroke-linecap="round" stroke-linejoin="round"/>
<path d="M1.78369 16.2089L4.08709 14.7993" stroke="black" stroke-width="0.5" stroke-miterlimit="10" stroke-linecap="round" stroke-linejoin="round"/>
<path d="M0.5 9.26221L3.14198 9.68774" stroke="black" stroke-width="0.5" stroke-miterlimit="10" stroke-linecap="round" stroke-linejoin="round"/>
<path d="M3.9082 3.20752L5.64986 5.23307" stroke="black" stroke-width="0.5" stroke-miterlimit="10" stroke-linecap="round" stroke-linejoin="round"/>
</svg>