<svg width="22" height="22" viewBox="0 0 22 22" fill="none" xmlns="http://www.w3.org/2000/svg">
<path d="M7.65066 20.9207L2.28111 16.3354L1 9.38954L4.40698 3.33308L10.9076 1L17.4605 3.48195L20.9992 9.61748L19.868 16.5359L14.5962 21L7.65066 20.9207Z" stroke="black" stroke-width="0.5" stroke-miterlimit="10" stroke-linecap="round" stroke-linejoin="round"/>
<path d="M8.53598 18.3001L4.5851 14.9264L3.64258 9.81559L6.14923 5.35915L10.9325 3.64258L15.754 5.46874L18.3578 9.98337L17.5255 15.0738L13.6465 18.3585L8.53598 18.3001Z" stroke="black" stroke-width="0.5" stroke-miterlimit="10" stroke-linecap="round" stroke-linejoin="round"/>
<path d="M10.9097 1L10.935 3.64206" stroke="black" stroke-width="0.5" stroke-miterlimit="10" stroke-linecap="round" stroke-linejoin="round"/>
<path d="M17.459 3.48242L15.752 5.46869" stroke="black" stroke-width="0.5" stroke-miterlimit="10" stroke-linecap="round" stroke-linejoin="round"/>
<path d="M20.9994 9.61719L18.3574 9.98256" stroke="black" stroke-width="0.5" stroke-miterlimit="10" stroke-linecap="round" stroke-linejoin="round"/>
<path d="M19.8669 16.5368L17.5239 15.0742" stroke="black" stroke-width="0.5" stroke-miterlimit="10" stroke-linecap="round" stroke-linejoin="round"/>
<path d="M14.5928 20.9995L13.6426 18.3574" stroke="black" stroke-width="0.5" stroke-miterlimit="10" stroke-linecap="round" stroke-linejoin="round"/>
<path d="M7.65137 20.92L8.53609 18.2988" stroke="black" stroke-width="0.5" stroke-miterlimit="10" stroke-linecap="round" stroke-linejoin="round"/>
<path d="M2.28369 16.3353L4.58709 14.9258" stroke="black" stroke-width="0.5" stroke-miterlimit="10" stroke-linecap="round" stroke-linejoin="round"/>
<path d="M1 9.38867L3.64198 9.8142" stroke="black" stroke-width="0.5" stroke-miterlimit="10" stroke-linecap="round" stroke-linejoin="round"/>
<path d="M4.4082 3.33398L6.14986 5.35953" stroke="black" stroke-width="0.5" stroke-miterlimit="10" stroke-linecap="round" stroke-linejoin="round"/>
</svg>
