<svg width="16" height="16" viewBox="0 0 16 16" fill="none" xmlns="http://www.w3.org/2000/svg">
<path d="M15.3121 14.5172L11.0641 10.2692C12.0849 9.04371 12.594 7.47182 12.4854 5.88054C12.3767 4.28927 11.6588 2.80113 10.4809 1.7257C9.30305 0.650269 7.7559 0.0703499 6.16133 0.106581C4.56677 0.142813 3.04756 0.792405 1.91974 1.92022C0.791917 3.04804 0.142325 4.56726 0.106093 6.16182C0.0698616 7.75639 0.64978 9.30354 1.72521 10.4814C2.80064 11.6593 4.28878 12.3772 5.88005 12.4858C7.47133 12.5945 9.04322 12.0854 10.2687 11.0646L14.5167 15.3126L15.3121 14.5172ZM1.24961 6.3126C1.24961 5.31133 1.54652 4.33255 2.10279 3.50002C2.65907 2.6675 3.44972 2.01862 4.37477 1.63546C5.29982 1.25229 6.31772 1.15203 7.29975 1.34737C8.28178 1.54271 9.18383 2.02486 9.89184 2.73287C10.5998 3.44087 11.082 4.34292 11.2773 5.32495C11.4727 6.30698 11.3724 7.32488 10.9892 8.24993C10.6061 9.17498 9.95721 9.96564 9.12468 10.5219C8.29216 11.0782 7.31337 11.3751 6.31211 11.3751C4.96991 11.3736 3.6831 10.8398 2.73402 9.89068C1.78494 8.9416 1.2511 7.6548 1.24961 6.3126Z" fill="black"/>
</svg>
