<svg width="30" height="22" viewBox="0 0 30 22" fill="none" xmlns="http://www.w3.org/2000/svg">
<path d="M25.6663 5.66659H21.6663V0.333252H2.99967C1.53301 0.333252 0.333008 1.53325 0.333008 2.99992V17.6666H2.99967C2.99967 19.8799 4.78634 21.6666 6.99967 21.6666C9.21301 21.6666 10.9997 19.8799 10.9997 17.6666H18.9997C18.9997 19.8799 20.7863 21.6666 22.9997 21.6666C25.213 21.6666 26.9997 19.8799 26.9997 17.6666H29.6663V10.9999L25.6663 5.66659ZM24.9997 7.66659L27.613 10.9999H21.6663V7.66659H24.9997ZM6.99967 18.9999C6.26634 18.9999 5.66634 18.3999 5.66634 17.6666C5.66634 16.9333 6.26634 16.3333 6.99967 16.3333C7.73301 16.3333 8.33301 16.9333 8.33301 17.6666C8.33301 18.3999 7.73301 18.9999 6.99967 18.9999ZM9.95967 14.9999C9.22634 14.1866 8.18634 13.6666 6.99967 13.6666C5.81301 13.6666 4.77301 14.1866 4.03967 14.9999H2.99967V2.99992H18.9997V14.9999H9.95967ZM22.9997 18.9999C22.2663 18.9999 21.6663 18.3999 21.6663 17.6666C21.6663 16.9333 22.2663 16.3333 22.9997 16.3333C23.733 16.3333 24.333 16.9333 24.333 17.6666C24.333 18.3999 23.733 18.9999 22.9997 18.9999Z" fill="white"/>
</svg>
