<svg width="21" height="20" viewBox="0 0 21 20" fill="none" xmlns="http://www.w3.org/2000/svg">
<mask id="mask0_115_439" style="mask-type:luminance" maskUnits="userSpaceOnUse" x="0" y="0" width="21" height="20">
<path d="M20.4995 0H0.499512V20H20.4995V0Z" fill="white"/>
</mask>
<g mask="url(#mask0_115_439)">
<path d="M6.79078 18.1274C14.3384 18.1274 18.4659 11.8723 18.4659 6.44799C18.4659 6.27039 18.4623 6.09359 18.4543 5.91749C19.2574 5.33609 19.9505 4.61629 20.5011 3.79179C19.7658 4.11879 18.9747 4.33889 18.1447 4.43809C18.9919 3.92999 19.6422 3.12599 19.9491 2.16769C19.1436 2.64569 18.2624 2.98269 17.3435 3.16409C16.5947 2.36619 15.5287 1.86719 14.3483 1.86719C12.0822 1.86719 10.2447 3.70549 10.2447 5.97149C10.2447 6.29359 10.2807 6.60689 10.3511 6.90749C6.94068 6.73579 3.91658 5.10239 1.89278 2.61869C1.52828 3.24509 1.33648 3.95709 1.33718 4.68179C1.33718 6.10599 2.06158 7.36319 3.16318 8.09869C2.51158 8.07879 1.87418 7.90269 1.30478 7.58529C1.30418 7.60249 1.30418 7.61929 1.30418 7.63769C1.30418 9.62569 2.71858 11.2855 4.59618 11.6616C4.24348 11.7577 3.87968 11.8062 3.51418 11.806C3.25018 11.806 2.99298 11.7801 2.74298 11.732C3.26538 13.363 4.78018 14.5499 6.57618 14.5831C5.17168 15.6843 3.40258 16.3402 1.47978 16.3402C1.15268 16.3404 0.825777 16.3214 0.500977 16.2833C2.31698 17.4477 4.47318 18.1274 6.79078 18.1274Z" fill="#333333"/>
</g>
</svg>