<svg width="38" height="14" viewBox="0 0 38 14" fill="none" xmlns="http://www.w3.org/2000/svg">
<rect x="0.75" y="3.75" width="36.5" height="6.5" rx="3.25" stroke="#555555" stroke-width="0.5"/>
<path d="M32 4L33.8151 6.72265C33.9271 6.8906 33.9271 7.1094 33.8151 7.27735L32 10" stroke="#555555" stroke-width="0.5" stroke-linecap="round"/>
<path d="M29 4L30.8151 6.72265C30.9271 6.8906 30.9271 7.1094 30.8151 7.27735L29 10" stroke="#555555" stroke-width="0.5" stroke-linecap="round"/>
<path d="M26 4L27.8151 6.72265C27.9271 6.8906 27.9271 7.1094 27.8151 7.27735L26 10" stroke="#555555" stroke-width="0.5" stroke-linecap="round"/>
<path d="M6 10L4.1849 7.27735C4.07293 7.1094 4.07293 6.8906 4.1849 6.72265L6 4" stroke="#555555" stroke-width="0.5" stroke-linecap="round"/>
<path d="M9 10L7.1849 7.27735C7.07293 7.1094 7.07293 6.8906 7.1849 6.72265L9 4" stroke="#555555" stroke-width="0.5" stroke-linecap="round"/>
<path d="M12 10L10.1849 7.27735C10.0729 7.1094 10.0729 6.8906 10.1849 6.72265L12 4" stroke="#555555" stroke-width="0.5" stroke-linecap="round"/>
<rect x="14.25" y="1.25" width="9.5" height="11.5" rx="0.25" fill="white" stroke="#555555" stroke-width="0.5"/>
<circle cx="24" cy="1" r="0.8" fill="white" stroke="#555555" stroke-width="0.4"/>
<circle cx="14" cy="1" r="0.8" fill="white" stroke="#555555" stroke-width="0.4"/>
<circle cx="14" cy="13" r="0.8" fill="white" stroke="#555555" stroke-width="0.4"/>
<circle cx="24" cy="13" r="0.8" fill="white" stroke="#555555" stroke-width="0.4"/>
<path d="M18.8501 1.24787H19.1484C19.1508 1.6527 19.2289 1.93087 19.3828 2.08239C19.5343 2.23153 19.8101 2.30611 20.2102 2.30611H21.8295C22.1113 2.30611 22.3551 2.33452 22.5611 2.39134C22.767 2.44579 22.9375 2.5322 23.0724 2.65057C23.2098 2.76894 23.3116 2.92164 23.3778 3.10866C23.4441 3.29569 23.4773 3.5206 23.4773 3.78338H23.0938C23.0938 3.52533 23.05 3.31818 22.9624 3.16193C22.8748 3.00568 22.7375 2.89205 22.5504 2.82102C22.3634 2.74763 22.1231 2.71094 21.8295 2.71094H20.1143C19.8965 2.71094 19.7083 2.68845 19.5497 2.64347C19.3911 2.59612 19.2609 2.51799 19.1591 2.40909C19.0549 2.30019 18.978 2.15104 18.9283 1.96165C18.8762 1.77225 18.8501 1.53433 18.8501 1.24787ZM14.3864 3.78338C14.3864 3.5206 14.4195 3.29569 14.4858 3.10866C14.5521 2.92164 14.6539 2.76894 14.7912 2.65057C14.9261 2.5322 15.0966 2.44579 15.3026 2.39134C15.5085 2.33452 15.7524 2.30611 16.0341 2.30611H17.6534C18.0535 2.30611 18.3305 2.23153 18.4844 2.08239C18.6359 1.93087 18.7128 1.6527 18.7152 1.24787H19.0135C19.0111 1.53433 18.9851 1.77225 18.9354 1.96165C18.8833 2.15104 18.8063 2.30019 18.7045 2.40909C18.6027 2.51799 18.4725 2.59612 18.3139 2.64347C18.1553 2.68845 17.9671 2.71094 17.7493 2.71094H16.0341C15.7405 2.71094 15.5002 2.74763 15.3132 2.82102C15.1262 2.89205 14.9889 3.00568 14.9013 3.16193C14.8113 3.31818 14.7675 3.52533 14.7699 3.78338H14.3864ZM18.7152 1.24787H19.1484V2.03977H18.7152V1.24787Z" fill="#555555"/>
<path d="M19.1499 12.7521H18.8516C18.8492 12.3473 18.7711 12.0691 18.6172 11.9176C18.4657 11.7685 18.1899 11.6939 17.7898 11.6939H16.1705C15.8887 11.6939 15.6449 11.6655 15.4389 11.6087C15.233 11.5542 15.0625 11.4678 14.9276 11.3494C14.7902 11.2311 14.6884 11.0784 14.6222 10.8913C14.5559 10.7043 14.5227 10.4794 14.5227 10.2166H14.9062C14.9062 10.4747 14.95 10.6818 15.0376 10.8381C15.1252 10.9943 15.2625 11.108 15.4496 11.179C15.6366 11.2524 15.8769 11.2891 16.1705 11.2891H17.8857C18.1035 11.2891 18.2917 11.3116 18.4503 11.3565C18.6089 11.4039 18.7391 11.482 18.8409 11.5909C18.9451 11.6998 19.022 11.849 19.0717 12.0384C19.1238 12.2277 19.1499 12.4657 19.1499 12.7521ZM23.6136 10.2166C23.6136 10.4794 23.5805 10.7043 23.5142 10.8913C23.4479 11.0784 23.3461 11.2311 23.2088 11.3494C23.0739 11.4678 22.9034 11.5542 22.6974 11.6087C22.4915 11.6655 22.2476 11.6939 21.9659 11.6939H20.3466C19.9465 11.6939 19.6695 11.7685 19.5156 11.9176C19.3641 12.0691 19.2872 12.3473 19.2848 12.7521H18.9865C18.9889 12.4657 19.0149 12.2277 19.0646 12.0384C19.1167 11.849 19.1937 11.6998 19.2955 11.5909C19.3973 11.482 19.5275 11.4039 19.6861 11.3565C19.8447 11.3116 20.0329 11.2891 20.2507 11.2891H21.9659C22.2595 11.2891 22.4998 11.2524 22.6868 11.179C22.8738 11.108 23.0111 10.9943 23.0987 10.8381C23.1887 10.6818 23.2325 10.4747 23.2301 10.2166H23.6136ZM19.2848 12.7521H18.8516V11.9602H19.2848V12.7521Z" fill="#555555"/>
</svg>
