<svg width="40" height="35" viewBox="0 0 40 35" fill="none" xmlns="http://www.w3.org/2000/svg">
<path d="M28.6683 0.5C24.9456 0.5 21.7086 2.21243 19.8047 5.08216C17.9008 2.21243 14.6638 0.5 10.9411 0.5C8.12112 0.50335 5.41763 1.64751 3.42363 3.68149C1.42964 5.71546 0.307972 8.47316 0.304688 11.3496C0.304688 16.6298 3.53105 22.1251 9.89514 27.6802C12.8114 30.2149 15.9614 32.4556 19.3012 34.3708C19.456 34.4556 19.629 34.5 19.8047 34.5C19.9804 34.5 20.1534 34.4556 20.3081 34.3708C23.6479 32.4556 26.798 30.2149 29.7142 27.6802C36.0783 22.1251 39.3047 16.6298 39.3047 11.3496C39.3014 8.47316 38.1797 5.71546 36.1857 3.68149C34.1917 1.64751 31.4883 0.50335 28.6683 0.5ZM19.8047 32.1647C16.8956 30.4522 2.43196 21.4253 2.43196 11.3496C2.43431 9.04837 3.33155 6.84204 4.92681 5.2148C6.52206 3.58756 8.68502 2.67232 10.9411 2.66993C14.5361 2.66993 17.5551 4.62829 18.8208 7.78192C18.901 7.98091 19.0373 8.15111 19.2125 8.27089C19.3876 8.39068 19.5938 8.45463 19.8047 8.45463C20.0156 8.45463 20.2217 8.39068 20.3969 8.27089C20.5721 8.15111 20.7084 7.98091 20.7886 7.78192C22.0543 4.62829 25.0732 2.66993 28.6683 2.66993C30.9244 2.67232 33.0873 3.58756 34.6826 5.2148C36.2778 6.84204 37.1751 9.04837 37.1774 11.3496C37.1774 21.4253 22.7137 30.4522 19.8047 32.1647Z" fill="black"/>
</svg>
