<svg width="150" height="140" viewBox="0 0 150 140" fill="none" xmlns="http://www.w3.org/2000/svg">
<path d="M130.108 68.1722V31.7075C130.108 31.7028 130.104 31.6994 130.104 31.6947C130.102 31.4419 130.054 31.1856 129.945 30.94C129.908 30.8569 129.84 30.8019 129.793 30.7275C129.749 30.6559 129.707 30.5975 129.654 30.5328C129.432 30.2641 129.166 30.05 128.848 29.9366C128.839 29.9331 128.834 29.9225 128.825 29.9194L102.998 21.1887C102.996 21.1878 102.993 21.1872 102.99 21.1862L67.6436 9.23656C67.2517 9.10281 66.8255 9.10281 66.4336 9.23656L5.25232 29.9537C5.14982 29.9887 5.07514 30.0603 4.98295 30.11C4.92982 30.1378 4.86764 30.135 4.8167 30.1681C4.78482 30.1891 4.7717 30.2275 4.74139 30.2503C4.5567 30.3887 4.40826 30.5547 4.28732 30.7459C4.25826 30.7919 4.21545 30.825 4.19045 30.8731C4.06107 31.1209 3.99389 31.3937 3.9842 31.6784C3.98357 31.6969 3.97076 31.7125 3.97076 31.7312L3.53764 98.7359C3.53295 99.4666 3.95014 100.135 4.6092 100.451L67.7423 130.679C68.0005 130.804 68.2792 130.864 68.5583 130.864L68.5595 130.863L68.5608 130.864C68.8442 130.864 69.1345 130.799 69.4067 130.663L103.942 113.312C108.411 116.798 114.014 118.897 120.108 118.897C134.64 118.897 146.463 107.074 146.463 92.5431C146.463 81.5516 139.693 72.12 130.108 68.1722ZM120.108 66.1884C108.054 66.1884 97.8873 74.3344 94.7633 85.4031L78.757 92.5866C77.8051 93.0128 77.3789 94.1306 77.8073 95.0803C78.1208 95.7809 78.8098 96.1959 79.5289 96.1959C79.7892 96.1959 80.052 96.1428 80.3011 96.03L93.8861 89.9331C93.8011 90.7922 93.7539 91.6619 93.7539 92.5428C93.7539 94.3678 93.9414 96.1497 94.2964 97.8709L81.5573 103.956C80.617 104.405 80.2183 105.532 80.6676 106.473C80.9904 107.15 81.6679 107.547 82.3733 107.547C82.6451 107.547 82.9217 107.489 83.1845 107.362L95.3701 101.542C96.6095 104.937 98.5195 108.005 100.953 110.587L70.4648 125.905L70.872 59.3312L126.333 34.6144V66.9625C124.333 66.4753 122.256 66.1884 120.108 66.1884ZM30.6251 44.1291L43.0223 49.3053V68.6616L36.9079 62.6184C36.3617 62.0791 35.5436 61.9247 34.8383 62.2266L30.6251 64.0291V44.1291ZM33.6273 41.2906L85.8301 19.3706L97.0604 23.1672L44.7308 45.9269L33.6273 41.2906ZM102.387 24.9678L123.041 31.95L68.9695 56.0478L49.5605 47.9434L102.387 24.9678ZM67.0395 13.0187L80.4286 17.545L28.7367 39.2487L11.2014 31.9266L67.0395 13.0187ZM7.72764 34.5678L26.8498 42.5525V66.8916C26.8498 67.5253 27.1679 68.1178 27.6979 68.4681C28.2258 68.8162 28.8986 68.8759 29.4795 68.6272L35.1561 66.1981L43.582 74.5275C43.9439 74.8825 44.4233 75.0716 44.9095 75.0716C45.1561 75.0716 45.4026 75.0256 45.638 74.9263C46.3408 74.6334 46.7973 73.9444 46.7973 73.1837V50.8822L67.0951 59.3578L66.6895 125.987L7.32201 97.5628L7.72764 34.5678ZM120.108 115.122C107.658 115.122 97.5289 104.993 97.5289 92.5431C97.5289 80.0931 107.658 69.9637 120.108 69.9637C132.558 69.9637 142.688 80.0931 142.688 92.5431C142.688 104.993 132.558 115.122 120.108 115.122Z" fill="#0E1422"/>
<rect x="129.981" y="81.5309" width="3.81046" height="27.3987" rx="1.90523" transform="rotate(47.7511 129.981 81.5309)" fill="#E17862"/>
<rect x="110.363" y="84.3645" width="3.81046" height="27.3987" rx="1.90523" transform="rotate(-43.5195 110.363 84.3645)" fill="#E17862"/>
</svg>
