<svg width="33" height="32" viewBox="0 0 33 32" fill="none" xmlns="http://www.w3.org/2000/svg">
<path opacity="0.2" d="M25.5 19.1123L20.9 23.7123C20.7746 23.8295 20.6227 23.9146 20.4573 23.9603C20.2918 24.0061 20.1178 24.011 19.95 23.9748L12.7 22.1623C12.5676 22.1254 12.4442 22.0615 12.3375 21.9748L5.5 16.6373L9.575 8.97478L15.9875 7.09978C16.2154 7.03444 16.459 7.05216 16.675 7.14978L21 9.11228H18.4125C18.2826 9.11182 18.154 9.13698 18.0339 9.18632C17.9138 9.23565 17.8045 9.30819 17.7125 9.39978L12.8125 14.2873C12.7125 14.39 12.6354 14.5128 12.5863 14.6475C12.5373 14.7823 12.5174 14.9259 12.5281 15.0689C12.5387 15.2119 12.5796 15.351 12.648 15.477C12.7164 15.603 12.8109 15.713 12.925 15.7998L13.6 16.3123C14.2932 16.8297 15.135 17.1092 16 17.1092C16.865 17.1092 17.7068 16.8297 18.4 16.3123L20 15.1123L25.5 19.1123Z" fill="#7D6C64"/>
<path d="M30.5875 15.2251L27.5 16.7626L23.5 9.11259L26.625 7.55009C26.8572 7.43171 27.1269 7.40996 27.3751 7.48957C27.6233 7.56919 27.83 7.74371 27.95 7.97509L31.025 13.8626C31.0874 13.9804 31.1255 14.1096 31.1372 14.2424C31.1489 14.3752 31.134 14.509 31.0932 14.636C31.0525 14.7629 30.9867 14.8805 30.8999 14.9816C30.813 15.0828 30.7068 15.1656 30.5875 15.2251V15.2251Z" stroke="#7D6C64" stroke-width="2" stroke-linecap="round" stroke-linejoin="round"/>
<path d="M5.50003 16.6375L2.41253 15.0875C2.29365 15.0292 2.1877 14.9477 2.10098 14.8476C2.01425 14.7476 1.94853 14.6311 1.90772 14.5052C1.8669 14.3793 1.85183 14.2464 1.86339 14.1145C1.87496 13.9826 1.91292 13.8544 1.97503 13.7375L5.05003 7.84999C5.17032 7.61878 5.37613 7.44367 5.62361 7.36195C5.8711 7.28023 6.14072 7.29837 6.37503 7.41249L9.50003 8.97499L5.50003 16.6375Z" stroke="#7D6C64" stroke-width="2" stroke-linecap="round" stroke-linejoin="round"/>
<path d="M27.5 16.7627L25.5 19.1127L20.9 23.7127C20.7746 23.8299 20.6227 23.915 20.4573 23.9608C20.2918 24.0065 20.1178 24.0114 19.95 23.9752L12.7 22.1627C12.5676 22.1258 12.4442 22.062 12.3375 21.9752L5.5 16.6377" stroke="#7D6C64" stroke-width="2" stroke-linecap="round" stroke-linejoin="round"/>
<path d="M25.5 19.1123L20 15.1123L18.4 16.3123C17.7068 16.8297 16.865 17.1092 16 17.1092C15.135 17.1092 14.2932 16.8297 13.6 16.3123L12.925 15.7998C12.8108 15.713 12.7164 15.603 12.648 15.477C12.5796 15.351 12.5387 15.2119 12.5281 15.0689C12.5174 14.9259 12.5373 14.7823 12.5863 14.6476C12.6353 14.5128 12.7124 14.39 12.8125 14.2873L17.7125 9.39981C17.8045 9.30822 17.9137 9.23568 18.0339 9.18635C18.154 9.13701 18.2826 9.11186 18.4125 9.11231H23.5" stroke="#7D6C64" stroke-width="2" stroke-linecap="round" stroke-linejoin="round"/>
<path d="M9.57495 8.97478L15.9875 7.09978C16.2153 7.03444 16.459 7.05216 16.675 7.14978L21 9.11228" stroke="#7D6C64" stroke-width="2" stroke-linecap="round" stroke-linejoin="round"/>
<path d="M14.5 26.6125L10.7375 25.6625C10.5842 25.6279 10.4422 25.5547 10.325 25.45L7.5 23" stroke="#7D6C64" stroke-width="2" stroke-linecap="round" stroke-linejoin="round"/>
</svg>
