<?xml version="1.0" encoding="utf-8"?>
<!-- Generator: Adobe Illustrator 28.0.0, SVG Export Plug-In . SVG Version: 6.00 Build 0)  -->
<svg version="1.1" id="Layer_1" xmlns="http://www.w3.org/2000/svg" xmlns:xlink="http://www.w3.org/1999/xlink" x="0px" y="0px"
	 viewBox="0 0 500 40.1" style="enable-background:new 0 0 500 40.1;" xml:space="preserve">
<style type="text/css">
	.st0{fill:#010101;}
</style>
<g>
	<path class="st0" d="M39.5,21.6H28.1c-0.2,0-0.4,0.2-0.4,0.4s0.2,0.4,0.4,0.4H29c2.8,0,3.8,0,3.8,4.4v8.5c-2.2,1-5.7,1.6-9.2,1.6
		c-9.1,0-14.4-6.1-14.4-16.8s5.2-16.8,14-16.8c4,0,5.8,1.1,7.5,4.4c1.2,2.4,2.1,3.2,3.5,3.2s2.4-0.9,2.4-2.3c0-3.1-6.6-6.2-13.4-6.2
		C12.4,2.4,4.8,9.7,4.8,20.1s7.6,17.7,18.8,17.7c3.7,0,6.3-0.6,8.7-1.2c1.5-0.3,2.9-0.7,4.3-0.8l0.2,0l0-0.2
		c-0.2-2.6-0.2-5.1-0.2-8.9c0-4,0.8-4.4,2.9-4.4c0.2,0,0.4-0.2,0.4-0.4S39.7,21.6,39.5,21.6L39.5,21.6z"/>
	<path class="st0" d="M72.7,36.6c-2.4,0-4.4-1.6-7.6-9.9c-1.9-5-3.5-6.8-6.5-7.4c4.8-1,8-4.1,8-8.2c0-5.2-4.2-8.2-11.3-8.2H43.2
		c-0.2,0-0.4,0.2-0.4,0.4s0.2,0.4,0.4,0.4c2.1,0,3.3,0.6,3.3,11.8v9.4c0,11.3-1.3,11.8-3.3,11.8c-0.2,0-0.4,0.2-0.4,0.4
		s0.2,0.4,0.4,0.4h10.5c0.2,0,0.4-0.2,0.4-0.4s-0.2-0.4-0.4-0.4c-2.1,0-3.3-0.6-3.3-11.8v-21h5c4.6,0,7.1,2.6,7.1,7.2
		c0,3.8-2.2,7.7-7.1,7.7h-2.9c-0.3,0-0.5,0.2-0.5,0.5s0.2,0.5,0.5,0.5h2.3c3.3,0,4,0.9,6.7,8.6c2.8,8,3.8,9.1,6.2,9.1h5.1
		c0.2,0,0.4-0.2,0.4-0.4S73,36.6,72.7,36.6L72.7,36.6z"/>
	<path class="st0" d="M91.1,2.4c-10.6,0-17.9,7.3-17.9,17.8s7.4,17.7,17.9,17.7S109,30.6,109,20.1S101.6,2.4,91.1,2.4z M104.6,20.1
		c0,10.5-5.1,16.8-13.5,16.8s-13.5-6.3-13.5-16.8S82.6,3.3,91.1,3.3S104.6,9.6,104.6,20.1z"/>
	<path class="st0" d="M159.4,2.8h-10.8c-0.2,0-0.4,0.2-0.4,0.4s0.2,0.4,0.4,0.4c1.5,0,2.4,0.3,2.9,1c1.2,1.6,0.7,5.4-1.6,12.5
		l-4.6,14.5l-6.3-16.2c-2.8-7.1-3.5-10-2.7-11.1c0.4-0.6,1.2-0.7,2.4-0.7h0.4c0.2,0,0.4-0.2,0.4-0.4s-0.2-0.4-0.4-0.4h-11.7
		c-0.2,0-0.4,0.2-0.4,0.4s0.2,0.4,0.4,0.4c1.9,0,3.1,0.8,6.4,9.1l-6.2,19.1L121,15.4c-2.8-7-3.6-10-2.8-11.1
		c0.3-0.5,0.9-0.7,2.2-0.7c0.2,0,0.4-0.2,0.4-0.4s-0.2-0.4-0.4-0.4h-10.9c-0.2,0-0.4,0.2-0.4,0.4s0.2,0.4,0.4,0.4
		c2,0,3.2,1,7.5,11.9l8.8,22c0.1,0.2,0.3,0.4,0.5,0.4c0.3,0,0.4-0.2,0.5-0.4l7.7-23.4c0.2,0.4,0.4,0.9,0.6,1.4l8.6,22
		c0.1,0.2,0.3,0.4,0.5,0.4c0.4,0,0.4-0.2,0.5-0.4l6.4-20.1c4-12.7,6.4-13.7,8.6-13.7c0.2,0,0.4-0.2,0.4-0.4S159.6,2.8,159.4,2.8
		L159.4,2.8z"/>
	<path class="st0" d="M196.2,2.8h-10.3c-0.2,0-0.4,0.2-0.4,0.4s0.2,0.4,0.4,0.4c2.4,0,4.7,1,4.7,13.6v13.3l-20.2-27
		C170,3,169.6,2.8,169,2.8h-5.8c-0.2,0-0.4,0.2-0.4,0.4s0.2,0.4,0.4,0.4c3,0,4.2,0.8,4.2,6V23c0,12.6-2.3,13.6-4.7,13.6
		c-0.2,0-0.4,0.2-0.4,0.4s0.2,0.4,0.4,0.4H173c0.2,0,0.4-0.2,0.4-0.4s-0.2-0.4-0.4-0.4c-2.4,0-4.7-1-4.7-13.6V7.6l22.3,29.7
		c0.1,0.2,0.2,0.3,0.5,0.3c0.2,0,0.4-0.1,0.4-0.5V17.2c0-12.6,2.3-13.6,4.7-13.6c0.2,0,0.4-0.2,0.4-0.4S196.5,2.8,196.2,2.8
		L196.2,2.8z"/>
	<path class="st0" d="M229.3,19c4.5-1.1,7.4-4.1,7.4-8c0-5.2-4.2-8.2-11.2-8.2H214c-0.2,0-0.4,0.2-0.4,0.4s0.2,0.4,0.4,0.4
		c2.1,0,3.3,0.6,3.3,11.8v9.4c0,11.3-1.3,11.8-3.3,11.8c-0.2,0-0.4,0.2-0.4,0.4s0.2,0.4,0.4,0.4h12.1c7.7,0,12.4-3.5,12.4-9.3
		C238.4,23.1,235.1,19.9,229.3,19L229.3,19z M222.3,19.2c0,0.2,0.2,0.5,0.5,0.5h3.3c5.2,0,8.1,3,8.1,8.4s-2.8,8.3-8.1,8.3h-4.9V3.8
		h4.3c4.5,0,7,2.6,7,7.2c0,3.8-2.2,7.7-7,7.7h-2.6C222.4,18.7,222.3,19,222.3,19.2L222.3,19.2z"/>
	<path class="st0" d="M270.7,36.6c-2.4,0-4.4-1.6-7.6-9.9c-1.9-5-3.5-6.8-6.5-7.4c4.9-1,8-4.1,8-8.2c0-5.2-4.2-8.2-11.3-8.2h-12.1
		c-0.2,0-0.4,0.2-0.4,0.4s0.2,0.4,0.4,0.4c2.1,0,3.3,0.6,3.3,11.8v9.4c0,11.3-1.3,11.8-3.3,11.8c-0.2,0-0.4,0.2-0.4,0.4
		s0.2,0.4,0.4,0.4h10.5c0.2,0,0.4-0.2,0.4-0.4s-0.2-0.4-0.4-0.4c-2.1,0-3.3-0.6-3.3-11.8v-21h5c4.6,0,7.1,2.6,7.1,7.2
		c0,3.8-2.2,7.7-7.1,7.7h-2.9c-0.3,0-0.5,0.2-0.5,0.5s0.2,0.5,0.5,0.5h2.3c3.3,0,4,0.9,6.7,8.6c2.8,8,3.8,9.1,6.2,9.1h5.1
		c0.2,0,0.4-0.2,0.4-0.4S271,36.6,270.7,36.6L270.7,36.6z"/>
	<path class="st0" d="M284.9,3.6c0.2,0,0.4-0.2,0.4-0.4s-0.2-0.4-0.4-0.4h-10.3c-0.2,0-0.4,0.2-0.4,0.4s0.2,0.4,0.4,0.4
		c2.1,0,3.3,0.6,3.3,11.8v9.4c0,11.3-1.3,11.8-3.3,11.8c-0.2,0-0.4,0.2-0.4,0.4s0.2,0.4,0.4,0.4h10.3c0.2,0,0.4-0.2,0.4-0.4
		s-0.2-0.4-0.4-0.4c-2.1,0-3.3-0.6-3.3-11.8v-9.4C281.6,4.2,282.9,3.6,284.9,3.6z"/>
	<path class="st0" d="M314.4,24.9c-0.2,0-0.4,0.1-0.5,0.3c-1.7,7.3-5.6,11.2-11.4,11.2h-6.6v-21c0-11.3,1.3-11.8,3.3-11.8
		c0.2,0,0.4-0.2,0.4-0.4s-0.2-0.4-0.4-0.4h-10.5c-0.2,0-0.4,0.2-0.4,0.4s0.2,0.4,0.4,0.4c2.1,0,3.3,0.6,3.3,11.8v9.4
		c0,11.3-1.3,11.8-3.3,11.8c-0.2,0-0.4,0.2-0.4,0.4s0.2,0.4,0.4,0.4h23c0.6,0,1-0.3,1.1-1l1.8-11.1c0-0.1,0-0.2-0.1-0.3
		C314.6,25,314.5,24.9,314.4,24.9L314.4,24.9z"/>
	<path class="st0" d="M343.4,24.9c-0.2,0-0.4,0.1-0.5,0.3c-1.7,7.3-5.6,11.2-11.4,11.2h-6.6v-21c0-11.3,1.3-11.8,3.3-11.8
		c0.2,0,0.4-0.2,0.4-0.4s-0.2-0.4-0.4-0.4h-10.5c-0.2,0-0.4,0.2-0.4,0.4s0.2,0.4,0.4,0.4c2.1,0,3.3,0.6,3.3,11.8v9.4
		c0,11.3-1.3,11.8-3.3,11.8c-0.2,0-0.4,0.2-0.4,0.4s0.2,0.4,0.4,0.4h23c0.6,0,1-0.3,1.1-1l1.8-11.1c0-0.1,0-0.2-0.1-0.3
		C343.6,25,343.5,24.9,343.4,24.9L343.4,24.9z"/>
	<path class="st0" d="M357.2,3.6c0.2,0,0.4-0.2,0.4-0.4s-0.2-0.4-0.4-0.4h-10.3c-0.2,0-0.4,0.2-0.4,0.4s0.2,0.4,0.4,0.4
		c2.1,0,3.3,0.6,3.3,11.8v9.4c0,11.3-1.3,11.8-3.3,11.8c-0.2,0-0.4,0.2-0.4,0.4s0.2,0.4,0.4,0.4h10.3c0.2,0,0.4-0.2,0.4-0.4
		s-0.2-0.4-0.4-0.4c-2.1,0-3.3-0.6-3.3-11.8v-9.4C353.9,4.2,355.1,3.6,357.2,3.6z"/>
	<path class="st0" d="M394.6,36.6c-2,0-3.4-1.2-7.4-11.9l-8-21.1c-0.2-0.6-0.6-0.8-1.2-0.8h-2.6c-0.2,0-0.3,0.1-0.4,0.2
		c-0.1,0.1-0.1,0.3,0,0.5l0.8,2.2l-6.4,17.2c-4.7,12.8-6.5,13.7-8.7,13.7c-0.2,0-0.4,0.2-0.4,0.4s0.2,0.4,0.4,0.4h10.8
		c0.2,0,0.4-0.2,0.4-0.4s-0.2-0.4-0.4-0.4c-1.5,0-2.5-0.3-3-1.2c-1-1.5-0.7-4.8,1-10h13.8c2.4,6.5,3.1,9.4,2.3,10.5
		c-0.3,0.5-0.9,0.6-2,0.6c-0.2,0-0.4,0.2-0.4,0.4s0.2,0.4,0.4,0.4h11c0.2,0,0.4-0.2,0.4-0.4S394.9,36.6,394.6,36.6L394.6,36.6z
		 M370.4,23.1l6-16.1l6.6,17.6h-13.1C370,24.1,370.2,23.6,370.4,23.1L370.4,23.1z"/>
	<path class="st0" d="M431.7,2.8h-10.3c-0.2,0-0.4,0.2-0.4,0.4s0.2,0.4,0.4,0.4c2.4,0,4.7,1,4.7,13.6v13.3l-20.2-27
		c-0.4-0.5-0.7-0.7-1.4-0.7h-5.8c-0.2,0-0.4,0.2-0.4,0.4s0.2,0.4,0.4,0.4c3,0,4.2,0.8,4.2,6V23c0,12.6-2.3,13.6-4.7,13.6
		c-0.2,0-0.4,0.2-0.4,0.4s0.2,0.4,0.4,0.4h10.3c0.2,0,0.4-0.2,0.4-0.4s-0.2-0.4-0.4-0.4c-2.4,0-4.7-1-4.7-13.6V7.6l22.3,29.7
		c0.1,0.2,0.2,0.3,0.5,0.3c0.2,0,0.4-0.1,0.4-0.5V17.2c0-12.6,2.3-13.6,4.7-13.6c0.2,0,0.4-0.2,0.4-0.4S431.9,2.8,431.7,2.8
		L431.7,2.8z"/>
	<path class="st0" d="M466.9,28.4c-0.2-0.1-0.5-0.1-0.7,0.2c-2.8,5.3-6.9,7.9-12.8,7.9c-8.7,0-14.2-6.3-14.2-16.5s5.2-16.8,14-16.8
		c4,0,5.8,1.1,7.5,4.4c1.2,2.3,2.1,3.2,3.5,3.2s2.4-0.9,2.4-2.3c0-3.1-6.6-6.2-13.4-6.2c-10.8,0-18.4,7.3-18.4,17.8
		s7.4,17.7,17.9,17.7c6.4,0,11.4-3,14.3-8.7C467.2,28.8,467.1,28.5,466.9,28.4L466.9,28.4z"/>
	<path class="st0" d="M495.6,25c-0.1-0.1-0.1-0.1-0.2-0.2c-0.2,0-0.4,0.1-0.5,0.3c-1.7,7.3-5.6,11.2-11.4,11.2h-6.6V20.3h3.2
		c7,0,8.1,3.9,8.1,6.2c0,0.2,0.2,0.4,0.4,0.4s0.4-0.2,0.4-0.4V14.3c0-0.2-0.2-0.4-0.4-0.4s-0.4,0.2-0.4,0.4c0,2.2-0.8,5-8.1,5h-3.2
		V3.8h7c4.9,0,8.5,3.6,9.9,9.9c0,0.3,0.3,0.4,0.5,0.4c0.1,0,0.2-0.1,0.2-0.2s0.1-0.2,0.1-0.3L493,3.7c-0.1-0.6-0.5-0.9-1.1-0.9
		h-22.1c-0.2,0-0.4,0.2-0.4,0.4s0.2,0.4,0.4,0.4c2.1,0,3.3,0.6,3.3,11.8v9.4c0,11.3-1.3,11.8-3.3,11.8c-0.2,0-0.4,0.2-0.4,0.4
		s0.2,0.4,0.4,0.4h23c0.6,0,1-0.3,1.1-1l1.8-11.1C495.7,25.2,495.7,25.1,495.6,25L495.6,25z"/>
</g>
</svg>
