<svg width="140" height="117" viewBox="0 0 140 117" fill="none" xmlns="http://www.w3.org/2000/svg">
<g clip-path="url(#clip0_1441_2230)">
<path d="M120.045 77.0653C129.796 74.7129 136.083 68.2092 136.083 59.6698C136.083 48.4825 126.934 41.8056 111.61 41.8056H100.365L69.0198 41.8014L50.7201 41.8183C50.1993 41.8183 49.8055 42.1899 49.8055 42.6798C49.8055 43.1697 50.1993 43.5414 50.7201 43.5414H52.6805C58.8453 43.5414 60.9242 43.5414 60.9242 53.0352V71.4906C56.0762 73.6782 48.4549 75.0339 40.9267 75.0339C20.9968 75.0339 9.56903 61.7434 9.56903 38.5749C9.56903 15.4063 20.963 2.11583 40.046 2.11583C48.747 2.11583 52.7144 4.42593 56.3726 11.6223C58.9258 16.7197 60.9327 18.5273 64.0448 18.5273C67.1568 18.5273 69.2188 16.4917 69.2188 13.4636C69.2188 6.66846 54.7679 0 40.046 0C16.4664 0 0 15.8624 0 38.5749C0 61.2873 16.4494 77.1497 40.9267 77.1497C48.891 77.1497 54.734 75.773 59.8869 74.5609C63.1302 73.7965 66.1914 73.0785 69.2696 72.8505L69.7481 72.8125L69.7057 72.3353C69.2188 66.6888 69.2188 61.2535 69.2188 53.0309C69.2188 44.8083 70.7516 43.554 74.6088 43.554H87.6286C91.6425 43.554 93.9967 46.4385 93.9967 69.2396V89.5618C93.9967 114.031 91.2361 115.273 86.731 115.273C86.2102 115.273 85.8164 115.644 85.8164 116.134C85.8164 116.624 86.2102 116.996 86.731 116.996H113.08C130.185 116.996 140 109.63 140 96.7877C140 85.9889 132.671 78.9024 120.045 77.061V77.0653ZM113.08 114.884H102.287V43.9215H111.61C121.476 43.9215 126.908 49.513 126.908 59.6656C126.908 67.9896 122.179 76.3895 111.61 76.3895H105.831C105.094 76.3895 104.696 76.9343 104.696 77.4496C104.696 77.9648 105.094 78.5096 105.831 78.5096H113.08C124.397 78.5096 130.63 85.0049 130.63 96.7961C130.63 108.587 124.563 114.884 113.08 114.884Z" fill="white"/>
</g>
<defs>
<clipPath id="clip0_1441_2230">
<rect width="140" height="117" fill="white"/>
</clipPath>
</defs>
</svg>
