<svg width="134" height="112" viewBox="0 0 134 112" fill="none" xmlns="http://www.w3.org/2000/svg">
<g clip-path="url(#clip0_7162_112)">
<path d="M114.9 73.7719C124.233 71.5201 130.251 65.2942 130.251 57.1198C130.251 46.4106 121.494 40.0191 106.827 40.0191H96.0634L66.0618 40.015L48.5464 40.0312C48.0479 40.0312 47.671 40.3869 47.671 40.8559C47.671 41.3249 48.0479 41.6806 48.5464 41.6806H50.4227C56.3234 41.6806 58.3132 41.6806 58.3132 50.7687V68.4355C53.6729 70.5296 46.3782 71.8273 39.1727 71.8273C20.097 71.8273 9.15893 59.1048 9.15893 36.9264C9.15893 14.7479 20.0645 2.02541 38.3297 2.02541C46.6579 2.02541 50.4552 4.23679 53.9566 11.1256C56.4004 16.0052 58.3213 17.7355 61.3 17.7355C64.2787 17.7355 66.2523 15.7869 66.2523 12.8882C66.2523 6.38348 52.4207 0 38.3297 0C15.7607 0 0 15.1845 0 36.9264C0 58.6682 15.7444 73.8527 39.1727 73.8527C46.7956 73.8527 52.3883 72.5348 57.3203 71.3745C60.4246 70.6428 63.3547 69.9555 66.3009 69.7372L66.7589 69.7008L66.7183 69.244C66.2523 63.8389 66.2523 58.6359 66.2523 50.7647C66.2523 42.8934 67.7193 41.6927 71.4113 41.6927H83.8731C87.715 41.6927 89.9682 44.4539 89.9682 66.2807V85.7343C89.9682 109.158 87.3259 110.347 83.0139 110.347C82.5155 110.347 82.1386 110.702 82.1386 111.171C82.1386 111.64 82.5155 111.996 83.0139 111.996H108.233C124.606 111.996 134 104.945 134 92.6515C134 82.3142 126.985 75.5305 114.9 73.7678V73.7719ZM108.233 109.975H97.9033V42.0445H106.827C116.27 42.0445 121.469 47.3971 121.469 57.1158C121.469 65.084 116.943 73.125 106.827 73.125H101.295C100.59 73.125 100.209 73.6465 100.209 74.1398C100.209 74.633 100.59 75.1545 101.295 75.1545H108.233C119.066 75.1545 125.032 81.3722 125.032 92.6595C125.032 103.947 119.224 109.975 108.233 109.975Z" fill="#9E371E"/>
</g>
<defs>
<clipPath id="clip0_7162_112">
<rect width="134" height="112" fill="white"/>
</clipPath>
</defs>
</svg>
