<?xml version="1.0" encoding="UTF-8"?><svg id="a" xmlns="http://www.w3.org/2000/svg" viewBox="0 0 110 110"><defs><style>.b{fill:none;stroke:#000;stroke-linejoin:round;}</style></defs><path class="b" d="M56.39,5.3s4.1,3.84,8.07,8.51,8.64,10.67,10.67,14.99,7.58,13.85,7.41,26.01c-.18,12.17-6.08,24.25-6.97,25.93s-4.59,9.79-9.79,15.26-8.47,7.94-9.44,8.64c0,0-5.47-3.97-9.61-8.55-4.14-4.59-7.5-10.23-9.79-14.64-2.29-4.41-6.35-15.7-6.53-26.59s6.7-25.53,6.88-26.24,5.82-10.32,10.67-15.61,8.42-7.72,8.42-7.72Z"/><polyline class="b" points="64.13 13.44 56.47 24.07 62.56 31.46 71.51 41.68 82.53 54.82 71.67 66.74 63.07 76.91 52.71 88.85 36.94 81.45 41.04 67.13 44.85 54 50.14 31.63 52.99 19.55 56.39 5.3 59.86 19.91 62.67 31.9 68.29 54.54 71.78 67.13 75.56 80.75 60.19 89.43 56.39 84.68 49.88 77.11 41.04 67.13 30.41 54.87 41.1 42.22 50.14 31.63 56.47 24.07 47.96 13.02"/><polyline class="b" points="52.99 19.55 37.15 29 41.1 42.22 44.7 54.53 49.88 77.11 52.71 88.85 56.34 104.65 60.19 89.43"/><line class="b" x1="46.73" y1="96.09" x2="52.71" y2="88.85"/><polyline class="b" points="65.77 96 60.19 89.43 63.07 76.91 68.29 54.54 71.51 41.68 75.01 28.57 59.73 19.55"/></svg>