<?xml version="1.0" encoding="UTF-8"?><svg id="a" xmlns="http://www.w3.org/2000/svg" viewBox="0 0 110 110"><defs><style>.b{fill:none;stroke:#000;stroke-linejoin:round;}</style></defs><ellipse class="b" cx="53.72" cy="54.78" rx="32.23" ry="49.58"/><polygon class="b" points="53.72 5.2 63.23 19.7 71.92 54.78 77.21 67.24 76.97 89.11 63.1 89.96 53.72 104.36 43.84 90.03 30 88.34 30 67.04 21.49 54.78 30.45 42.3 30.21 20.87 43.84 19.38 53.72 5.2"/><polyline class="b" points="40.01 9.9 43.84 19.38 53.72 26.43 67.16 35.57 76.68 42.56 85.94 55.09 77.21 67.24 66.56 74.36 53.72 83.11 43.84 90.03 40.01 99.66"/><polyline class="b" points="67.43 99.66 63.1 89.96 66.8 74.2 71.92 54.78 76.68 42.56 76.99 20.48 63.23 19.7 30.45 42.3 35.48 54.78 40.38 74.03 43.84 90.03"/><polyline class="b" points="23.18 70.63 30 67.37 35.48 54.78 40.63 35.28 43.84 19.38 63.23 19.7 67.43 9.9"/><line class="b" x1="84.14" y1="38.36" x2="76.68" y2="42.56"/><line class="b" x1="84.11" y1="71.32" x2="77.21" y2="67.24"/><polyline class="b" points="63.1 89.96 53.72 83.11 40.38 74.03 30 67.37"/><line class="b" x1="30.45" y1="42.3" x2="23.18" y2="38.93"/></svg>