<?xml version="1.0" encoding="UTF-8"?><svg id="a" xmlns="http://www.w3.org/2000/svg" viewBox="0 0 110 110"><defs><style>.b{fill:none;stroke:#000;stroke-linejoin:round;}</style></defs><path class="b" d="M51.26,3.2s19.62,19.83,27.66,43.48c8.04,23.64,5.2,52.8-27.66,55.48,0,0-30.34,2.05-32.07-34.52C17.86,39.71,51.26,3.2,51.26,3.2Z"/><polyline class="b" points="40.46 16.64 51.54 30.46 62.08 42.58 70.35 52.69 82.7 68.05 71.48 75.38 62.74 79.05 51.26 83.84 44.6 88.63"/><polyline class="b" points="65.11 98.83 57.95 88.63 51.26 83.84 40.37 79.23 31.31 75.41 19.18 67.64 32.57 52.69 40.71 42.69 51.54 30.46 57.19 23.41 62.72 16.94"/><polyline class="b" points="57.19 23.41 72.91 32.99 70.35 52.69 67.94 62.88 62.74 79.05 57.95 88.63 51.26 102.15 44.6 88.63 40.37 79.23 35.01 63.07 32.57 52.69 30.17 32.42 45.82 23.6"/><polyline class="b" points="57.95 88.63 76.44 89.84 71.48 75.38 68.19 63.73 62.08 42.58 57.19 23.41 51.26 3.2 45.82 23.6 40.47 43.62 35.01 63.07 26.65 90.93 44.6 88.63 36.95 99.14"/></svg>