<?xml version="1.0" encoding="UTF-8"?>
<svg id="Layer_1" data-name="Layer 1" xmlns="http://www.w3.org/2000/svg" viewBox="0 0 450 450">
  <defs>
    <style>
      .cls-1 {
        fill: #010101;
      }
    </style>
  </defs>
  <path class="cls-1" d="m259.32,14.57h-67.08c-41.72,0-78.95,18.82-104.31,48.27-.41.41-.82.82-1.23,1.23-19.63,23.72-31.5,53.99-31.5,87.13v145.62c0,75.67,61.36,137.03,137.03,137.03h66.68c75.67,0,137.03-61.36,137.03-137.03v-145.21c0-75.67-61.36-137.03-136.62-137.03Zm133.76,282.24c0,32.72-11.86,62.58-31.09,85.49h0c-.82.82-1.64,2.05-2.45,2.86-15.54,17.59-35.18,31.09-58.09,38.45-.82.41-1.64.41-2.45.82-12.68,4.09-26.18,6.14-40.09,6.14h-66.68c-40.09,0-76.08-17.59-100.63-45.4-1.23-1.64-2.45-2.86-3.68-4.5-16.77-20.86-27.41-47.04-29.45-75.27v-163.62c2.05-27.41,12.27-52.36,28.22-72.4,1.64-2.05,3.27-4.09,4.91-6.14,24.95-28.22,60.95-45.81,100.63-45.81h66.68c13.91,0,27.41,2.05,39.68,6.14.82.41,2.05.41,2.86.82,23.32,7.77,43.36,21.68,58.9,39.68.82.82,1.64,2.05,2.45,3.27,18.41,22.91,29.86,52.36,29.86,84.26v145.21h.41Zm-28.22-157.89h-1.23l-1.64-.41-56.04-8.59h-.82l-2.45-1.23-70.77-32.72-3.68-1.64-62.58-29.04-2.05-.82h-1.23l-70.36-1.23h-3.68c-.41.41-.82.82-1.23,1.23v78.54l.41,1.64.82,2.45h0l28.63,77.31v.41l1.23,3.68,30.68,85.49.82,2.05v.82l12.68,61.36.41,2.05,2.05,1.64,59.31,48.68,3.68,2.86.41.41.41-.41,3.27-2.86,56.86-53.18,1.64-1.23.41-.41.41-.41v-.82l.41-1.23,13.91-53.59v-.82l.82-2.45,28.22-91.63,1.23-4.09v-.41l27.41-75.67.82-2.45.41-1.64.41-1.23v-.41h0Zm-30.27,76.49l-1.64,4.09v.41l-29.86,96.94-.41.82-.82,2.86-13.09,51.54-.41,1.23-1.23,1.23-58.9,55.22-61.36-49.9-1.23-.82v-1.64l-12.27-59.72-.41-2.86-.41-.41-32.31-90.4v-.41l-1.23-3.68-28.22-75.67-.41-1.23v-76.9l71.58,1.23h1.23l1.64.82,60.54,27.82,3.68,1.64,74.86,34.77.41.41,2.86.41,53.99,8.18-26.59,74.04h0Zm61.36,8.59l-2.86-7.77-27.82-73.63-.82-1.64v-1.23h0l-1.23-72.4v-3.27h-74.04l-1.23-.82-62.58-45.81-.82-.82-.82.82-61.36,47.04-.82.41-.41,2.45-9.82,58.9v.82l-.82,2.45-31.91,90.4-1.23,3.68-.41.41-29.86,75.67h0l-.82,2.45-.41,1.64-.82,1.23h.41l1.23.41,1.64.41,61.36,11.45h.82l2.45.82,75.27,31.91,3.68,1.64,55.22,23.32,1.23.41.82.41h2.45l67.9,9,2.45.41v-2.86h0l2.45-76.9v-1.23l.82-1.64,27.82-70.77,2.86-7.36v-.41h0Zm-32.72,75.67l-1.23,2.86-.41.82v2.05l-2.45,76.9-67.49-8.59h-1.64l-1.23-.41-53.18-22.5-3.68-1.64-79.76-33.95-.41-.41-2.86-.41-59.72-11.45,29.45-74.45,1.64-3.68v-.41l33.54-95.72.41-.82.41-2.45,9.41-57.68.41-1.23,1.64-1.23,58.9-45,61.36,45,1.64,1.23.82.41h72.4l1.23,71.58v1.64l1.64,4.09,29.86,79.76-30.68,75.67h0Zm-74.77,75.29l2.8-.59,10.45,49.63-2.8.59-10.45-49.63ZM88.34,144.65h-31.5v-3.27h31.5l63.81-15.54,75.67-31.5,59.72-29.45,11.45-41.31,2.86.82-11.86,42.54-60.95,30.27-76.08,31.5-64.63,15.95Zm304.33,164.03l-29.04-2.86-29.86-84.67-30.68-89.17-15.95-65.86,2.86-.82,15.95,65.86,30.68,88.76,29.04,83.04,27.41,2.86-.41,2.86Zm-226.61,70.36v1.23l-.41,1.64h0l-.41,1.64-10.23,42.13-2.86-.82,10.23-42.54-70.77,3.68h-3.27l-.41-4.5-2.45-75.67h0v-1.23l-.41-1.64-26.59-71.99-2.86-7.77v-7.36l2.86-6.95,27.82-64.22.41-2.05h.41l2.45.82v.82l-1.23,2.45h0l-29.86,69.54-1.23,2.86,1.23,3.27,28.63,78.13h0l1.23,4.09.41,1.64,2.45,76.9,71.17-3.68,1.64-.41h2.05Zm-1.23,2.05l-1.23-2.45,140.3-61.77,58.9-14.32.82,2.86-58.9,14.32-139.9,61.36Zm198.36-238.91l.46-3.24,31.58,4.51-.46,3.24-31.58-4.51ZM151.81,21.6l3.2-.7,9.7,44.36-3.2.7-9.7-44.36ZM58.07,298.46h28.63v2.86h-28.63v-2.86Z"/>
</svg>