<?xml version="1.0" encoding="UTF-8"?><svg id="a" xmlns="http://www.w3.org/2000/svg" viewBox="0 0 110 110"><defs><style>.b{fill:none;stroke:#000;stroke-linejoin:round;}</style></defs><rect class="b" x="5.75" y="5.31" width="98.5" height="98.91"/><polygon class="b" points="104.25 5.31 92.86 33.84 84.01 54.77 75.79 75.91 75.79 92.61 34.27 92.61 34.27 75.76 25.45 54.31 17.04 33.86 5.75 5.31 34.83 17.26 76.15 33.84 92.86 33.84 92.7 75.91 75.79 75.91 55.22 84.32 34.27 92.69 5.75 104.22 16.97 75.35 34.24 33.79 75.79 16.94 104.25 5.31"/><polygon class="b" points="34.34 17.06 75.86 17.06 75.86 34.07 92.7 75.91 104.25 104.22 75.79 92.61 55.22 84.32 34.27 75.76 16.82 75.75 17.04 33.86 34.24 33.79 34.34 17.06"/></svg>