<?xml version="1.0" encoding="UTF-8"?><svg id="a" xmlns="http://www.w3.org/2000/svg" viewBox="0 0 110 110"><defs><style>.b{fill:none;stroke:#000;stroke-linejoin:round;}</style></defs><polygon class="b" points="26.93 5.35 86.78 5.26 96.57 15.01 96.57 95.25 86.3 105.26 27.86 105.09 17.07 93.9 17.07 15.36 26.93 5.35"/><polygon class="b" points="23.77 22.76 34.87 14.01 78.37 14.12 89.69 22.76 89.79 87.87 78.96 96.18 34.39 96.18 23.77 87.82 23.77 22.76"/><polyline class="b" points="17.07 15.36 23.77 22.76 33.37 55.26 23.77 87.82 17.07 93.9"/><polyline class="b" points="27.86 105.09 34.39 96.18 35.62 87.71 33.37 55.26 35.14 22.49 34.87 14.01 26.93 5.35"/><polyline class="b" points="23.77 22.76 35.14 22.49 57.29 19.81 78.37 14.12 86.78 5.26"/><polyline class="b" points="96.57 15.01 89.69 22.76 77.94 22.97 57.29 19.81 34.87 14.01"/><polyline class="b" points="78.37 14.12 77.94 22.97 80.78 55.26 78.15 87.98 78.96 96.18 86.3 105.26"/><polyline class="b" points="96.57 95.25 89.79 87.87 80.78 55.26 89.69 22.76"/><polyline class="b" points="89.79 87.87 78.18 87.65 57.18 90.39 34.39 96.18"/><polyline class="b" points="23.77 87.82 35.62 87.71 57.64 90.33 78.96 96.18"/></svg>