<svg xmlns="http://www.w3.org/2000/svg" id="a" viewBox="0 0 110 110"><defs><style>.b{fill:none;stroke:#000;stroke-linejoin:round}</style></defs><ellipse cx="54.8" cy="55" class="b" rx="49.8" ry="50"/><path d="m35 9 5 13-21-2 2 22 7 13 8 18 5 15-6 13" class="b"/><path d="m9 36 12 6 14-6-7 19-7 14-1 22 21-3 13-6 19-9 15-5 17-13-18-14-14-4-19-8-14-7L55 5l13 17 5-13" class="b"/><path d="m41 88 14 17 13-17 5-15 8-18 6-14 3-21-22 2-14 7-19 7 5-14" class="b"/><path d="m68 22 6 15 7 18 7 13 2 23-22-3 6 13m-6-13-14-6-18-9-15-4L5 56l16-14M9 74l12-5m67-1 13 6M87 41l14-6" class="b"/></svg>