<svg width="221" height="40" viewBox="0 0 221 40" fill="none" xmlns="http://www.w3.org/2000/svg">
<path d="M0.208984 14.7891C0.208984 13.1068 0.44401 11.5234 0.914062 10.0391C1.38411 8.54232 2.02734 7.24349 2.84375 6.14258C3.66016 5.04167 4.60645 4.08919 5.68262 3.28516C6.75879 2.48112 7.92155 1.88118 9.1709 1.48535C10.4202 1.07715 11.6882 0.873047 12.9746 0.873047C14.8424 0.873047 16.5742 1.16374 18.1699 1.74512C18.8997 2.01725 19.4811 2.15332 19.9141 2.15332C20.2852 2.15332 20.5758 2.05436 20.7861 1.85645C20.9964 1.64616 21.2129 1.31836 21.4355 0.873047H22.252V9.6123H21.4355C20.9902 7.78158 20.2913 6.21061 19.3389 4.89941C19.0544 4.50358 18.7575 4.15104 18.4482 3.8418C18.139 3.53255 17.7308 3.21712 17.2236 2.89551C16.7288 2.56152 16.1165 2.30176 15.3867 2.11621C14.6693 1.93066 13.8652 1.83789 12.9746 1.83789C10.2904 1.83789 8.21224 2.94499 6.74023 5.15918C5.2806 7.361 4.55078 10.571 4.55078 14.7891C4.55078 18.9948 5.2806 22.1738 6.74023 24.3262C8.19987 26.4785 10.278 27.5547 12.9746 27.5547C13.8652 27.5547 14.6693 27.4619 15.3867 27.2764C16.1165 27.0908 16.7288 26.8372 17.2236 26.5156C17.7308 26.1816 18.139 25.86 18.4482 25.5508C18.7575 25.2415 19.0544 24.889 19.3389 24.4932C20.2913 23.182 20.9902 21.611 21.4355 19.7803H22.252V28.5195H21.4355C21.2871 28.2227 21.1572 28 21.0459 27.8516C20.9469 27.7031 20.7985 27.5671 20.6006 27.4434C20.4027 27.3073 20.1738 27.2393 19.9141 27.2393C19.4811 27.2393 18.8997 27.3753 18.1699 27.6475C16.5742 28.2288 14.8424 28.5195 12.9746 28.5195C11.3418 28.5195 9.76465 28.2041 8.24316 27.5732C6.73405 26.9424 5.37956 26.0579 4.17969 24.9199C2.97982 23.7695 2.01497 22.3161 1.28516 20.5596C0.567708 18.8031 0.208984 16.8796 0.208984 14.7891ZM27.1504 24.4189C27.1504 22.9346 27.5524 21.8275 28.3564 21.0977C29.1729 20.3678 30.3232 19.9102 31.8076 19.7246C32.7725 19.6009 33.5889 19.4154 34.2568 19.168C34.9248 18.9082 35.6113 18.5495 36.3164 18.0918V16.125C36.3164 15.6673 36.2669 15.2282 36.168 14.8076C36.069 14.387 35.902 13.9727 35.667 13.5645C35.4443 13.1439 35.1042 12.8099 34.6465 12.5625C34.1888 12.3151 33.6383 12.1914 32.9951 12.1914C32.2529 12.1914 31.5973 12.3522 31.0283 12.6738C30.4593 12.9954 30.1748 13.4098 30.1748 13.917C30.1748 14.1768 30.2614 14.5046 30.4346 14.9004C30.6201 15.2962 30.7129 15.6797 30.7129 16.0508C30.7129 16.4095 30.5768 16.7249 30.3047 16.9971C30.0449 17.2568 29.6553 17.3867 29.1357 17.3867C28.542 17.3867 28.0967 17.2321 27.7998 16.9229C27.5153 16.6012 27.373 16.1745 27.373 15.6426C27.373 14.5169 27.9359 13.515 29.0615 12.6367C30.1995 11.7461 31.5664 11.3008 33.1621 11.3008C35.3145 11.3008 36.8854 11.876 37.875 13.0264C38.8646 14.1644 39.3594 15.6797 39.3594 17.5723V25.0498C39.3594 25.8044 39.5326 26.3548 39.8789 26.7012C40.2376 27.0475 40.6829 27.2207 41.2148 27.2207C41.5859 27.2207 41.9818 27.1774 42.4023 27.0908L42.5508 28.0371C41.957 28.2103 41.4313 28.2969 40.9736 28.2969C39.7861 28.2969 38.8275 28.099 38.0977 27.7031C37.3678 27.2949 36.8359 26.5218 36.502 25.3838H36.3535C35.7474 26.2992 35.0732 27.0166 34.3311 27.5361C33.5889 28.0433 32.6426 28.2969 31.4922 28.2969C30.1934 28.2969 29.1419 27.9505 28.3379 27.2578C27.5462 26.5651 27.1504 25.6188 27.1504 24.4189ZM30.3789 24.1221C30.3789 26.0146 31.2572 26.9609 33.0137 26.9609C33.6569 26.9609 34.263 26.7135 34.832 26.2188C35.401 25.724 35.8958 25.0931 36.3164 24.3262V18.9639C35.7227 19.3473 35.1598 19.638 34.6279 19.8359C34.1084 20.0215 33.3415 20.2441 32.3271 20.5039C31.0283 20.8379 30.3789 22.0439 30.3789 24.1221ZM48.3398 8.03516C48.7109 5.46224 49.7995 4.17578 51.6055 4.17578C52.36 4.17578 53.4115 4.47884 54.7598 5.08496C55.9967 5.6416 56.9616 5.91992 57.6543 5.91992C57.9017 5.91992 58.1058 5.87044 58.2666 5.77148C58.4398 5.67253 58.5758 5.5179 58.6748 5.30762C58.7861 5.09733 58.8665 4.9056 58.916 4.73242C58.9779 4.54688 59.0397 4.29948 59.1016 3.99023L59.918 4.13867C59.5469 6.71159 58.4583 7.99805 56.6523 7.99805C55.8978 7.99805 54.8464 7.69499 53.498 7.08887C52.2611 6.53223 51.2962 6.25391 50.6035 6.25391C50.3561 6.25391 50.1458 6.30339 49.9727 6.40234C49.8118 6.5013 49.6758 6.65592 49.5645 6.86621C49.4655 7.0765 49.3851 7.27441 49.3232 7.45996C49.2738 7.63314 49.2181 7.87435 49.1562 8.18359L48.3398 8.03516ZM45 28V27.1094H47.6348V12.4883H45V11.5977H50.6777V15.4941L50.9004 15.5498C51.4941 14.1644 52.2858 13.113 53.2754 12.3955C54.2773 11.6657 55.4154 11.3008 56.6895 11.3008C58.2233 11.3008 59.417 11.8265 60.2705 12.8779C61.0498 13.8428 61.4395 15.123 61.4395 16.7188V27.1094H64.0742V28H55.7617V27.1094H58.3965V16.0508C58.3965 13.7747 57.3822 12.6367 55.3535 12.6367C54.5618 12.6367 53.8568 12.9027 53.2383 13.4346C52.6198 13.9665 52.1126 14.6344 51.7168 15.4385C51.3086 16.2549 51.0303 17.0218 50.8818 17.7393C50.7458 18.4567 50.6777 19.3288 50.6777 20.3555V27.1094H53.3125V28H45ZM69.2324 25.8848C67.7233 24.2767 66.9688 22.248 66.9688 19.7988C66.9688 17.3496 67.7233 15.321 69.2324 13.7129C70.7539 12.1048 72.6217 11.3008 74.8359 11.3008C77.0501 11.3008 78.9118 12.1048 80.4209 13.7129C81.9424 15.321 82.7031 17.3496 82.7031 19.7988C82.7031 22.248 81.9424 24.2767 80.4209 25.8848C78.9118 27.4928 77.0501 28.2969 74.8359 28.2969C72.6217 28.2969 70.7539 27.4928 69.2324 25.8848ZM71.4961 14.0283C70.7539 15.2529 70.3828 17.1764 70.3828 19.7988C70.3828 22.4212 70.7539 24.3447 71.4961 25.5693C72.2507 26.7939 73.3639 27.4062 74.8359 27.4062C76.3079 27.4062 77.415 26.7939 78.1572 25.5693C78.9118 24.3447 79.2891 22.4212 79.2891 19.7988C79.2891 17.1764 78.9118 15.2529 78.1572 14.0283C77.415 12.8037 76.3079 12.1914 74.8359 12.1914C73.3639 12.1914 72.2507 12.8037 71.4961 14.0283ZM87.1934 14.7891C87.1934 13.1068 87.4284 11.5234 87.8984 10.0391C88.3685 8.54232 89.0117 7.24349 89.8281 6.14258C90.6445 5.04167 91.5908 4.08919 92.667 3.28516C93.7432 2.48112 94.9059 1.88118 96.1553 1.48535C97.4046 1.07715 98.6725 0.873047 99.959 0.873047C101.827 0.873047 103.559 1.16374 105.154 1.74512C105.884 2.01725 106.465 2.15332 106.898 2.15332C107.27 2.15332 107.56 2.05436 107.771 1.85645C107.981 1.64616 108.197 1.31836 108.42 0.873047H109.236V9.6123H108.42C107.975 7.78158 107.276 6.21061 106.323 4.89941C106.039 4.50358 105.742 4.15104 105.433 3.8418C105.123 3.53255 104.715 3.21712 104.208 2.89551C103.713 2.56152 103.101 2.30176 102.371 2.11621C101.654 1.93066 100.85 1.83789 99.959 1.83789C97.2747 1.83789 95.1966 2.94499 93.7246 5.15918C92.265 7.361 91.5352 10.571 91.5352 14.7891C91.5352 18.9948 92.265 22.1738 93.7246 24.3262C95.1842 26.4785 97.2624 27.5547 99.959 27.5547C100.85 27.5547 101.654 27.4619 102.371 27.2764C103.101 27.0908 103.713 26.8372 104.208 26.5156C104.715 26.1816 105.123 25.86 105.433 25.5508C105.742 25.2415 106.039 24.889 106.323 24.4932C107.276 23.182 107.975 21.611 108.42 19.7803H109.236V28.5195H108.42C108.271 28.2227 108.142 28 108.03 27.8516C107.931 27.7031 107.783 27.5671 107.585 27.4434C107.387 27.3073 107.158 27.2393 106.898 27.2393C106.465 27.2393 105.884 27.3753 105.154 27.6475C103.559 28.2288 101.827 28.5195 99.959 28.5195C98.3262 28.5195 96.749 28.2041 95.2275 27.5732C93.7184 26.9424 92.3639 26.0579 91.1641 24.9199C89.9642 23.7695 88.9993 22.3161 88.2695 20.5596C87.5521 18.8031 87.1934 16.8796 87.1934 14.7891ZM113.615 28V27.1094H116.25V12.4883H113.615V11.5977H119.293V15.4941L119.479 15.5498C120.109 14.0283 120.79 12.9398 121.52 12.2842C122.262 11.6286 123.202 11.3008 124.34 11.3008C125.23 11.3008 125.942 11.5853 126.474 12.1543C127.006 12.7109 127.271 13.416 127.271 14.2695C127.271 14.9251 127.104 15.5003 126.771 15.9951C126.437 16.4775 125.973 16.7188 125.379 16.7188C125.07 16.7188 124.798 16.626 124.562 16.4404C124.34 16.2549 124.229 16.0013 124.229 15.6797C124.229 15.3457 124.284 14.9313 124.396 14.4365C124.482 14.0283 124.525 13.6758 124.525 13.3789C124.525 12.6862 124.148 12.3398 123.394 12.3398C122.738 12.3398 122.175 12.5687 121.705 13.0264C121.247 13.484 120.814 14.1273 120.406 14.9561C119.664 16.4281 119.293 18.2279 119.293 20.3555V27.1094H121.928V28H113.615ZM128.348 36.6279C128.348 36.0218 128.521 35.527 128.867 35.1436C129.226 34.7601 129.708 34.5684 130.314 34.5684C130.747 34.5684 131.088 34.6921 131.335 34.9395C131.595 35.1992 131.725 35.4961 131.725 35.8301C131.725 36.0651 131.675 36.3805 131.576 36.7764C131.477 37.1475 131.428 37.4691 131.428 37.7412C131.428 38.3473 131.848 38.6504 132.689 38.6504C133.32 38.6504 133.846 38.3659 134.267 37.7969C134.687 37.2279 135.058 36.4671 135.38 35.5146L137.848 28.3525L131.391 12.4883H129.201V11.5977H137.699V12.4883H134.693L139.369 23.9922L143.34 12.4883H141.058V11.5977H146.791V12.4883H144.397L136.382 35.5703C136.221 36.0404 136.073 36.4238 135.937 36.7207C135.813 37.0299 135.627 37.3887 135.38 37.7969C135.132 38.2174 134.867 38.5452 134.582 38.7803C134.298 39.0277 133.926 39.238 133.469 39.4111C133.023 39.5967 132.529 39.6895 131.984 39.6895C130.945 39.6895 130.079 39.4235 129.387 38.8916C128.694 38.3721 128.348 37.6175 128.348 36.6279ZM149.797 28.2969V21.8398H150.465C150.737 22.681 151.003 23.3923 151.263 23.9736C151.522 24.555 151.844 25.1302 152.228 25.6992C152.611 26.2682 153.062 26.695 153.582 26.9795C154.102 27.264 154.683 27.4062 155.326 27.4062C156.6 27.4062 157.571 27.1712 158.239 26.7012C158.92 26.2188 159.26 25.526 159.26 24.623C159.26 23.7324 158.932 23.0273 158.276 22.5078C157.621 21.9759 156.439 21.4378 154.732 20.8936C153.928 20.6462 153.26 20.3926 152.729 20.1328C152.197 19.873 151.696 19.5452 151.226 19.1494C150.756 18.7536 150.403 18.2712 150.168 17.7021C149.945 17.1331 149.834 16.459 149.834 15.6797C149.834 14.3561 150.267 13.2985 151.133 12.5068C151.999 11.7028 153.025 11.3008 154.213 11.3008C155.116 11.3008 156.075 11.4925 157.089 11.876C157.596 12.0615 157.942 12.1543 158.128 12.1543C158.734 12.1543 159.198 11.8698 159.52 11.3008H160.169V16.5146H159.427C159.043 15.488 158.598 14.6283 158.091 13.9355C157.646 13.3294 157.114 12.8903 156.495 12.6182C155.889 12.3337 155.091 12.1914 154.102 12.1914C153.384 12.1914 152.815 12.4202 152.395 12.8779C151.974 13.3232 151.764 13.849 151.764 14.4551C151.764 14.8509 151.826 15.2035 151.949 15.5127C152.085 15.8096 152.252 16.0693 152.45 16.292C152.648 16.5023 152.945 16.7126 153.341 16.9229C153.749 17.1331 154.132 17.3125 154.491 17.4609C154.862 17.6094 155.376 17.7949 156.031 18.0176C158.023 18.6979 159.427 19.4215 160.243 20.1885C161.072 20.9554 161.486 22.0007 161.486 23.3242C161.486 24.8086 160.985 26.0085 159.983 26.9238C158.994 27.8392 157.466 28.2969 155.4 28.2969C154.572 28.2969 153.693 28.1546 152.766 27.8701C152.16 27.6969 151.646 27.6104 151.226 27.6104C150.842 27.6104 150.57 27.8392 150.409 28.2969H149.797ZM164.084 12.4883V11.5977H167.312V7.96094C168.067 7.96094 168.593 7.91146 168.89 7.8125C169.187 7.70117 169.384 7.49707 169.483 7.2002C169.607 6.85384 169.737 6.63737 169.873 6.55078C170.009 6.45182 170.3 6.40234 170.745 6.40234C170.461 8.19596 170.318 9.92773 170.318 11.5977H174.549V12.4883H170.318V24.4746C170.318 25.3281 170.492 25.9219 170.838 26.2559C171.184 26.5775 171.716 26.7383 172.434 26.7383C173.201 26.7383 173.794 26.3548 174.215 25.5879C174.648 24.821 174.895 23.9427 174.957 22.9531H175.848C175.798 23.6458 175.674 24.3014 175.477 24.9199C175.279 25.526 175.007 26.0889 174.66 26.6084C174.314 27.1279 173.856 27.5423 173.287 27.8516C172.718 28.1484 172.069 28.2969 171.339 28.2969C170.807 28.2969 170.306 28.2288 169.836 28.0928C169.378 27.9567 168.951 27.7402 168.556 27.4434C168.172 27.1465 167.869 26.7383 167.646 26.2188C167.424 25.6868 167.312 25.0684 167.312 24.3633V12.4883H164.084ZM179.41 24.4189C179.41 22.9346 179.812 21.8275 180.616 21.0977C181.433 20.3678 182.583 19.9102 184.067 19.7246C185.032 19.6009 185.849 19.4154 186.517 19.168C187.185 18.9082 187.871 18.5495 188.576 18.0918V16.125C188.576 15.6673 188.527 15.2282 188.428 14.8076C188.329 14.387 188.162 13.9727 187.927 13.5645C187.704 13.1439 187.364 12.8099 186.906 12.5625C186.449 12.3151 185.898 12.1914 185.255 12.1914C184.513 12.1914 183.857 12.3522 183.288 12.6738C182.719 12.9954 182.435 13.4098 182.435 13.917C182.435 14.1768 182.521 14.5046 182.694 14.9004C182.88 15.2962 182.973 15.6797 182.973 16.0508C182.973 16.4095 182.837 16.7249 182.564 16.9971C182.305 17.2568 181.915 17.3867 181.396 17.3867C180.802 17.3867 180.356 17.2321 180.06 16.9229C179.775 16.6012 179.633 16.1745 179.633 15.6426C179.633 14.5169 180.196 13.515 181.321 12.6367C182.459 11.7461 183.826 11.3008 185.422 11.3008C187.574 11.3008 189.145 11.876 190.135 13.0264C191.124 14.1644 191.619 15.6797 191.619 17.5723V25.0498C191.619 25.8044 191.792 26.3548 192.139 26.7012C192.497 27.0475 192.943 27.2207 193.475 27.2207C193.846 27.2207 194.242 27.1774 194.662 27.0908L194.811 28.0371C194.217 28.2103 193.691 28.2969 193.233 28.2969C192.046 28.2969 191.087 28.099 190.357 27.7031C189.628 27.2949 189.096 26.5218 188.762 25.3838H188.613C188.007 26.2992 187.333 27.0166 186.591 27.5361C185.849 28.0433 184.902 28.2969 183.752 28.2969C182.453 28.2969 181.402 27.9505 180.598 27.2578C179.806 26.5651 179.41 25.6188 179.41 24.4189ZM182.639 24.1221C182.639 26.0146 183.517 26.9609 185.273 26.9609C185.917 26.9609 186.523 26.7135 187.092 26.2188C187.661 25.724 188.156 25.0931 188.576 24.3262V18.9639C187.982 19.3473 187.42 19.638 186.888 19.8359C186.368 20.0215 185.601 20.2441 184.587 20.5039C183.288 20.8379 182.639 22.0439 182.639 24.1221ZM197.148 28V27.1094H199.783V1.13281H197.148V0.242188H202.826V27.1094H205.461V28H197.148ZM209.061 28.2969V21.8398H209.729C210.001 22.681 210.267 23.3923 210.526 23.9736C210.786 24.555 211.108 25.1302 211.491 25.6992C211.875 26.2682 212.326 26.695 212.846 26.9795C213.365 27.264 213.947 27.4062 214.59 27.4062C215.864 27.4062 216.835 27.1712 217.503 26.7012C218.183 26.2188 218.523 25.526 218.523 24.623C218.523 23.7324 218.196 23.0273 217.54 22.5078C216.884 21.9759 215.703 21.4378 213.996 20.8936C213.192 20.6462 212.524 20.3926 211.992 20.1328C211.46 19.873 210.959 19.5452 210.489 19.1494C210.019 18.7536 209.667 18.2712 209.432 17.7021C209.209 17.1331 209.098 16.459 209.098 15.6797C209.098 14.3561 209.531 13.2985 210.396 12.5068C211.262 11.7028 212.289 11.3008 213.477 11.3008C214.38 11.3008 215.338 11.4925 216.353 11.876C216.86 12.0615 217.206 12.1543 217.392 12.1543C217.998 12.1543 218.462 11.8698 218.783 11.3008H219.433V16.5146H218.69C218.307 15.488 217.862 14.6283 217.354 13.9355C216.909 13.3294 216.377 12.8903 215.759 12.6182C215.153 12.3337 214.355 12.1914 213.365 12.1914C212.648 12.1914 212.079 12.4202 211.658 12.8779C211.238 13.3232 211.027 13.849 211.027 14.4551C211.027 14.8509 211.089 15.2035 211.213 15.5127C211.349 15.8096 211.516 16.0693 211.714 16.292C211.912 16.5023 212.209 16.7126 212.604 16.9229C213.013 17.1331 213.396 17.3125 213.755 17.4609C214.126 17.6094 214.639 17.7949 215.295 18.0176C217.286 18.6979 218.69 19.4215 219.507 20.1885C220.336 20.9554 220.75 22.0007 220.75 23.3242C220.75 24.8086 220.249 26.0085 219.247 26.9238C218.257 27.8392 216.73 28.2969 214.664 28.2969C213.835 28.2969 212.957 28.1546 212.029 27.8701C211.423 27.6969 210.91 27.6104 210.489 27.6104C210.106 27.6104 209.834 27.8392 209.673 28.2969H209.061Z" fill="white"/>
</svg>
