<svg width="186" height="34" viewBox="0 0 186 34" fill="none" xmlns="http://www.w3.org/2000/svg">
<path d="M0.28125 12.875C0.28125 11.4583 0.479167 10.125 0.875 8.875C1.27083 7.61458 1.8125 6.52083 2.5 5.59375C3.1875 4.66667 3.98438 3.86458 4.89062 3.1875C5.79688 2.51042 6.77604 2.00521 7.82812 1.67188C8.88021 1.32812 9.94792 1.15625 11.0312 1.15625C12.6042 1.15625 14.0625 1.40104 15.4062 1.89062C16.0208 2.11979 16.5104 2.23438 16.875 2.23438C17.1875 2.23438 17.4323 2.15104 17.6094 1.98438C17.7865 1.80729 17.9688 1.53125 18.1562 1.15625H18.8438V8.51562H18.1562C17.7812 6.97396 17.1927 5.65104 16.3906 4.54688C16.151 4.21354 15.901 3.91667 15.6406 3.65625C15.3802 3.39583 15.0365 3.13021 14.6094 2.85938C14.1927 2.57812 13.6771 2.35938 13.0625 2.20312C12.4583 2.04688 11.7812 1.96875 11.0312 1.96875C8.77083 1.96875 7.02083 2.90104 5.78125 4.76562C4.55208 6.61979 3.9375 9.32292 3.9375 12.875C3.9375 16.4167 4.55208 19.0938 5.78125 20.9062C7.01042 22.7188 8.76042 23.625 11.0312 23.625C11.7812 23.625 12.4583 23.5469 13.0625 23.3906C13.6771 23.2344 14.1927 23.0208 14.6094 22.75C15.0365 22.4688 15.3802 22.1979 15.6406 21.9375C15.901 21.6771 16.151 21.3802 16.3906 21.0469C17.1927 19.9427 17.7812 18.6198 18.1562 17.0781H18.8438V24.4375H18.1562C18.0312 24.1875 17.9219 24 17.8281 23.875C17.7448 23.75 17.6198 23.6354 17.4531 23.5312C17.2865 23.4167 17.0938 23.3594 16.875 23.3594C16.5104 23.3594 16.0208 23.474 15.4062 23.7031C14.0625 24.1927 12.6042 24.4375 11.0312 24.4375C9.65625 24.4375 8.32812 24.1719 7.04688 23.6406C5.77604 23.1094 4.63542 22.3646 3.625 21.4062C2.61458 20.4375 1.80208 19.2135 1.1875 17.7344C0.583333 16.2552 0.28125 14.6354 0.28125 12.875ZM22.9688 20.9844C22.9688 19.7344 23.3073 18.8021 23.9844 18.1875C24.6719 17.5729 25.6406 17.1875 26.8906 17.0312C27.7031 16.9271 28.3906 16.7708 28.9531 16.5625C29.5156 16.3438 30.0938 16.0417 30.6875 15.6562V14C30.6875 13.6146 30.6458 13.2448 30.5625 12.8906C30.4792 12.5365 30.3385 12.1875 30.1406 11.8438C29.9531 11.4896 29.6667 11.2083 29.2812 11C28.8958 10.7917 28.4323 10.6875 27.8906 10.6875C27.2656 10.6875 26.7135 10.8229 26.2344 11.0938C25.7552 11.3646 25.5156 11.7135 25.5156 12.1406C25.5156 12.3594 25.5885 12.6354 25.7344 12.9688C25.8906 13.3021 25.9688 13.625 25.9688 13.9375C25.9688 14.2396 25.8542 14.5052 25.625 14.7344C25.4062 14.9531 25.0781 15.0625 24.6406 15.0625C24.1406 15.0625 23.7656 14.9323 23.5156 14.6719C23.276 14.401 23.1562 14.0417 23.1562 13.5938C23.1562 12.6458 23.6302 11.8021 24.5781 11.0625C25.5365 10.3125 26.6875 9.9375 28.0312 9.9375C29.8438 9.9375 31.1667 10.4219 32 11.3906C32.8333 12.349 33.25 13.625 33.25 15.2188V21.5156C33.25 22.151 33.3958 22.6146 33.6875 22.9062C33.9896 23.1979 34.3646 23.3438 34.8125 23.3438C35.125 23.3438 35.4583 23.3073 35.8125 23.2344L35.9375 24.0312C35.4375 24.1771 34.9948 24.25 34.6094 24.25C33.6094 24.25 32.8021 24.0833 32.1875 23.75C31.5729 23.4062 31.125 22.7552 30.8438 21.7969H30.7188C30.2083 22.5677 29.6406 23.1719 29.0156 23.6094C28.3906 24.0365 27.5938 24.25 26.625 24.25C25.5312 24.25 24.6458 23.9583 23.9688 23.375C23.3021 22.7917 22.9688 21.9948 22.9688 20.9844ZM25.6875 20.7344C25.6875 22.3281 26.4271 23.125 27.9062 23.125C28.4479 23.125 28.9583 22.9167 29.4375 22.5C29.9167 22.0833 30.3333 21.5521 30.6875 20.9062V16.3906C30.1875 16.7135 29.7135 16.9583 29.2656 17.125C28.8281 17.2812 28.1823 17.4688 27.3281 17.6875C26.2344 17.9688 25.6875 18.9844 25.6875 20.7344ZM40.8125 7.1875C41.125 5.02083 42.0417 3.9375 43.5625 3.9375C44.1979 3.9375 45.0833 4.19271 46.2188 4.70312C47.2604 5.17188 48.0729 5.40625 48.6562 5.40625C48.8646 5.40625 49.0365 5.36458 49.1719 5.28125C49.3177 5.19792 49.4323 5.06771 49.5156 4.89062C49.6094 4.71354 49.6771 4.55208 49.7188 4.40625C49.7708 4.25 49.8229 4.04167 49.875 3.78125L50.5625 3.90625C50.25 6.07292 49.3333 7.15625 47.8125 7.15625C47.1771 7.15625 46.2917 6.90104 45.1562 6.39062C44.1146 5.92188 43.3021 5.6875 42.7188 5.6875C42.5104 5.6875 42.3333 5.72917 42.1875 5.8125C42.0521 5.89583 41.9375 6.02604 41.8438 6.20312C41.7604 6.38021 41.6927 6.54688 41.6406 6.70312C41.599 6.84896 41.5521 7.05208 41.5 7.3125L40.8125 7.1875ZM38 24V23.25H40.2188V10.9375H38V10.1875H42.7812V13.4688L42.9688 13.5156C43.4688 12.349 44.1354 11.4635 44.9688 10.8594C45.8125 10.2448 46.7708 9.9375 47.8438 9.9375C49.1354 9.9375 50.1406 10.3802 50.8594 11.2656C51.5156 12.0781 51.8438 13.1562 51.8438 14.5V23.25H54.0625V24H47.0625V23.25H49.2812V13.9375C49.2812 12.0208 48.4271 11.0625 46.7188 11.0625C46.0521 11.0625 45.4583 11.2865 44.9375 11.7344C44.4167 12.1823 43.9896 12.7448 43.6562 13.4219C43.3125 14.1094 43.0781 14.7552 42.9531 15.3594C42.8385 15.9635 42.7812 16.6979 42.7812 17.5625V23.25H45V24H38ZM58.4062 22.2188C57.1354 20.8646 56.5 19.1562 56.5 17.0938C56.5 15.0312 57.1354 13.3229 58.4062 11.9688C59.6875 10.6146 61.2604 9.9375 63.125 9.9375C64.9896 9.9375 66.5573 10.6146 67.8281 11.9688C69.1094 13.3229 69.75 15.0312 69.75 17.0938C69.75 19.1562 69.1094 20.8646 67.8281 22.2188C66.5573 23.5729 64.9896 24.25 63.125 24.25C61.2604 24.25 59.6875 23.5729 58.4062 22.2188ZM60.3125 12.2344C59.6875 13.2656 59.375 14.8854 59.375 17.0938C59.375 19.3021 59.6875 20.9219 60.3125 21.9531C60.9479 22.9844 61.8854 23.5 63.125 23.5C64.3646 23.5 65.2969 22.9844 65.9219 21.9531C66.5573 20.9219 66.875 19.3021 66.875 17.0938C66.875 14.8854 66.5573 13.2656 65.9219 12.2344C65.2969 11.2031 64.3646 10.6875 63.125 10.6875C61.8854 10.6875 60.9479 11.2031 60.3125 12.2344ZM73.5312 12.875C73.5312 11.4583 73.7292 10.125 74.125 8.875C74.5208 7.61458 75.0625 6.52083 75.75 5.59375C76.4375 4.66667 77.2344 3.86458 78.1406 3.1875C79.0469 2.51042 80.026 2.00521 81.0781 1.67188C82.1302 1.32812 83.1979 1.15625 84.2812 1.15625C85.8542 1.15625 87.3125 1.40104 88.6562 1.89062C89.2708 2.11979 89.7604 2.23438 90.125 2.23438C90.4375 2.23438 90.6823 2.15104 90.8594 1.98438C91.0365 1.80729 91.2188 1.53125 91.4062 1.15625H92.0938V8.51562H91.4062C91.0312 6.97396 90.4427 5.65104 89.6406 4.54688C89.401 4.21354 89.151 3.91667 88.8906 3.65625C88.6302 3.39583 88.2865 3.13021 87.8594 2.85938C87.4427 2.57812 86.9271 2.35938 86.3125 2.20312C85.7083 2.04688 85.0312 1.96875 84.2812 1.96875C82.0208 1.96875 80.2708 2.90104 79.0312 4.76562C77.8021 6.61979 77.1875 9.32292 77.1875 12.875C77.1875 16.4167 77.8021 19.0938 79.0312 20.9062C80.2604 22.7188 82.0104 23.625 84.2812 23.625C85.0312 23.625 85.7083 23.5469 86.3125 23.3906C86.9271 23.2344 87.4427 23.0208 87.8594 22.75C88.2865 22.4688 88.6302 22.1979 88.8906 21.9375C89.151 21.6771 89.401 21.3802 89.6406 21.0469C90.4427 19.9427 91.0312 18.6198 91.4062 17.0781H92.0938V24.4375H91.4062C91.2812 24.1875 91.1719 24 91.0781 23.875C90.9948 23.75 90.8698 23.6354 90.7031 23.5312C90.5365 23.4167 90.3438 23.3594 90.125 23.3594C89.7604 23.3594 89.2708 23.474 88.6562 23.7031C87.3125 24.1927 85.8542 24.4375 84.2812 24.4375C82.9062 24.4375 81.5781 24.1719 80.2969 23.6406C79.026 23.1094 77.8854 22.3646 76.875 21.4062C75.8646 20.4375 75.0521 19.2135 74.4375 17.7344C73.8333 16.2552 73.5312 14.6354 73.5312 12.875ZM95.7812 24V23.25H98V10.9375H95.7812V10.1875H100.562V13.4688L100.719 13.5156C101.25 12.2344 101.823 11.3177 102.438 10.7656C103.062 10.2135 103.854 9.9375 104.812 9.9375C105.562 9.9375 106.161 10.1771 106.609 10.6562C107.057 11.125 107.281 11.7188 107.281 12.4375C107.281 12.9896 107.141 13.474 106.859 13.8906C106.578 14.2969 106.188 14.5 105.688 14.5C105.427 14.5 105.198 14.4219 105 14.2656C104.812 14.1094 104.719 13.8958 104.719 13.625C104.719 13.3438 104.766 12.9948 104.859 12.5781C104.932 12.2344 104.969 11.9375 104.969 11.6875C104.969 11.1042 104.651 10.8125 104.016 10.8125C103.464 10.8125 102.99 11.0052 102.594 11.3906C102.208 11.776 101.844 12.3177 101.5 13.0156C100.875 14.2552 100.562 15.7708 100.562 17.5625V23.25H102.781V24H95.7812ZM108.188 31.2656C108.188 30.7552 108.333 30.3385 108.625 30.0156C108.927 29.6927 109.333 29.5312 109.844 29.5312C110.208 29.5312 110.495 29.6354 110.703 29.8438C110.922 30.0625 111.031 30.3125 111.031 30.5938C111.031 30.7917 110.99 31.0573 110.906 31.3906C110.823 31.7031 110.781 31.974 110.781 32.2031C110.781 32.7135 111.135 32.9688 111.844 32.9688C112.375 32.9688 112.818 32.7292 113.172 32.25C113.526 31.7708 113.839 31.1302 114.109 30.3281L116.188 24.2969L110.75 10.9375H108.906V10.1875H116.062V10.9375H113.531L117.469 20.625L120.812 10.9375H118.891V10.1875H123.719V10.9375H121.703L114.953 30.375C114.818 30.7708 114.693 31.0938 114.578 31.3438C114.474 31.6042 114.318 31.9062 114.109 32.25C113.901 32.6042 113.677 32.8802 113.438 33.0781C113.198 33.2865 112.885 33.4635 112.5 33.6094C112.125 33.7656 111.708 33.8438 111.25 33.8438C110.375 33.8438 109.646 33.6198 109.062 33.1719C108.479 32.7344 108.188 32.099 108.188 31.2656ZM126.25 24.25V18.8125H126.812C127.042 19.5208 127.266 20.1198 127.484 20.6094C127.703 21.099 127.974 21.5833 128.297 22.0625C128.62 22.5417 129 22.901 129.438 23.1406C129.875 23.3802 130.365 23.5 130.906 23.5C131.979 23.5 132.797 23.3021 133.359 22.9062C133.932 22.5 134.219 21.9167 134.219 21.1562C134.219 20.4062 133.943 19.8125 133.391 19.375C132.839 18.9271 131.844 18.474 130.406 18.0156C129.729 17.8073 129.167 17.5938 128.719 17.375C128.271 17.1562 127.849 16.8802 127.453 16.5469C127.057 16.2135 126.76 15.8073 126.562 15.3281C126.375 14.849 126.281 14.2812 126.281 13.625C126.281 12.5104 126.646 11.6198 127.375 10.9531C128.104 10.276 128.969 9.9375 129.969 9.9375C130.729 9.9375 131.536 10.099 132.391 10.4219C132.818 10.5781 133.109 10.6562 133.266 10.6562C133.776 10.6562 134.167 10.4167 134.438 9.9375H134.984V14.3281H134.359C134.036 13.4635 133.661 12.7396 133.234 12.1562C132.859 11.6458 132.411 11.276 131.891 11.0469C131.38 10.8073 130.708 10.6875 129.875 10.6875C129.271 10.6875 128.792 10.8802 128.438 11.2656C128.083 11.6406 127.906 12.0833 127.906 12.5938C127.906 12.9271 127.958 13.224 128.062 13.4844C128.177 13.7344 128.318 13.9531 128.484 14.1406C128.651 14.3177 128.901 14.4948 129.234 14.6719C129.578 14.849 129.901 15 130.203 15.125C130.516 15.25 130.948 15.4062 131.5 15.5938C133.177 16.1667 134.359 16.776 135.047 17.4219C135.745 18.0677 136.094 18.9479 136.094 20.0625C136.094 21.3125 135.672 22.3229 134.828 23.0938C133.995 23.8646 132.708 24.25 130.969 24.25C130.271 24.25 129.531 24.1302 128.75 23.8906C128.24 23.7448 127.807 23.6719 127.453 23.6719C127.13 23.6719 126.901 23.8646 126.766 24.25H126.25ZM138.281 10.9375V10.1875H141V7.125C141.635 7.125 142.078 7.08333 142.328 7C142.578 6.90625 142.745 6.73438 142.828 6.48438C142.932 6.19271 143.042 6.01042 143.156 5.9375C143.271 5.85417 143.516 5.8125 143.891 5.8125C143.651 7.32292 143.531 8.78125 143.531 10.1875H147.094V10.9375H143.531V21.0312C143.531 21.75 143.677 22.25 143.969 22.5312C144.26 22.8021 144.708 22.9375 145.312 22.9375C145.958 22.9375 146.458 22.6146 146.812 21.9688C147.177 21.3229 147.385 20.5833 147.438 19.75H148.188C148.146 20.3333 148.042 20.8854 147.875 21.4062C147.708 21.9167 147.479 22.3906 147.188 22.8281C146.896 23.2656 146.51 23.6146 146.031 23.875C145.552 24.125 145.005 24.25 144.391 24.25C143.943 24.25 143.521 24.1927 143.125 24.0781C142.74 23.9635 142.38 23.7812 142.047 23.5312C141.724 23.2812 141.469 22.9375 141.281 22.5C141.094 22.0521 141 21.5312 141 20.9375V10.9375H138.281ZM151.188 20.9844C151.188 19.7344 151.526 18.8021 152.203 18.1875C152.891 17.5729 153.859 17.1875 155.109 17.0312C155.922 16.9271 156.609 16.7708 157.172 16.5625C157.734 16.3438 158.312 16.0417 158.906 15.6562V14C158.906 13.6146 158.865 13.2448 158.781 12.8906C158.698 12.5365 158.557 12.1875 158.359 11.8438C158.172 11.4896 157.885 11.2083 157.5 11C157.115 10.7917 156.651 10.6875 156.109 10.6875C155.484 10.6875 154.932 10.8229 154.453 11.0938C153.974 11.3646 153.734 11.7135 153.734 12.1406C153.734 12.3594 153.807 12.6354 153.953 12.9688C154.109 13.3021 154.188 13.625 154.188 13.9375C154.188 14.2396 154.073 14.5052 153.844 14.7344C153.625 14.9531 153.297 15.0625 152.859 15.0625C152.359 15.0625 151.984 14.9323 151.734 14.6719C151.495 14.401 151.375 14.0417 151.375 13.5938C151.375 12.6458 151.849 11.8021 152.797 11.0625C153.755 10.3125 154.906 9.9375 156.25 9.9375C158.062 9.9375 159.385 10.4219 160.219 11.3906C161.052 12.349 161.469 13.625 161.469 15.2188V21.5156C161.469 22.151 161.615 22.6146 161.906 22.9062C162.208 23.1979 162.583 23.3438 163.031 23.3438C163.344 23.3438 163.677 23.3073 164.031 23.2344L164.156 24.0312C163.656 24.1771 163.214 24.25 162.828 24.25C161.828 24.25 161.021 24.0833 160.406 23.75C159.792 23.4062 159.344 22.7552 159.062 21.7969H158.938C158.427 22.5677 157.859 23.1719 157.234 23.6094C156.609 24.0365 155.812 24.25 154.844 24.25C153.75 24.25 152.865 23.9583 152.188 23.375C151.521 22.7917 151.188 21.9948 151.188 20.9844ZM153.906 20.7344C153.906 22.3281 154.646 23.125 156.125 23.125C156.667 23.125 157.177 22.9167 157.656 22.5C158.135 22.0833 158.552 21.5521 158.906 20.9062V16.3906C158.406 16.7135 157.932 16.9583 157.484 17.125C157.047 17.2812 156.401 17.4688 155.547 17.6875C154.453 17.9688 153.906 18.9844 153.906 20.7344ZM166.125 24V23.25H168.344V1.375H166.125V0.625H170.906V23.25H173.125V24H166.125ZM176.156 24.25V18.8125H176.719C176.948 19.5208 177.172 20.1198 177.391 20.6094C177.609 21.099 177.88 21.5833 178.203 22.0625C178.526 22.5417 178.906 22.901 179.344 23.1406C179.781 23.3802 180.271 23.5 180.812 23.5C181.885 23.5 182.703 23.3021 183.266 22.9062C183.839 22.5 184.125 21.9167 184.125 21.1562C184.125 20.4062 183.849 19.8125 183.297 19.375C182.745 18.9271 181.75 18.474 180.312 18.0156C179.635 17.8073 179.073 17.5938 178.625 17.375C178.177 17.1562 177.755 16.8802 177.359 16.5469C176.964 16.2135 176.667 15.8073 176.469 15.3281C176.281 14.849 176.188 14.2812 176.188 13.625C176.188 12.5104 176.552 11.6198 177.281 10.9531C178.01 10.276 178.875 9.9375 179.875 9.9375C180.635 9.9375 181.443 10.099 182.297 10.4219C182.724 10.5781 183.016 10.6562 183.172 10.6562C183.682 10.6562 184.073 10.4167 184.344 9.9375H184.891V14.3281H184.266C183.943 13.4635 183.568 12.7396 183.141 12.1562C182.766 11.6458 182.318 11.276 181.797 11.0469C181.286 10.8073 180.615 10.6875 179.781 10.6875C179.177 10.6875 178.698 10.8802 178.344 11.2656C177.99 11.6406 177.812 12.0833 177.812 12.5938C177.812 12.9271 177.865 13.224 177.969 13.4844C178.083 13.7344 178.224 13.9531 178.391 14.1406C178.557 14.3177 178.807 14.4948 179.141 14.6719C179.484 14.849 179.807 15 180.109 15.125C180.422 15.25 180.854 15.4062 181.406 15.5938C183.083 16.1667 184.266 16.776 184.953 17.4219C185.651 18.0677 186 18.9479 186 20.0625C186 21.3125 185.578 22.3229 184.734 23.0938C183.901 23.8646 182.615 24.25 180.875 24.25C180.177 24.25 179.438 24.1302 178.656 23.8906C178.146 23.7448 177.714 23.6719 177.359 23.6719C177.036 23.6719 176.807 23.8646 176.672 24.25H176.156Z" fill="#272B40"/>
</svg>
